<svg xmlns="http://www.w3.org/2000/svg" viewBox="0 0 66.21 1091.25"><defs><style>.cls-1{fill:#faedd4;}</style></defs><title>Asset 11</title><g id="Layer_2" data-name="Layer 2"><g id="Curtains"><path d="M63.15,1.5C63.19,79.73,46.71,234,52.93,312c19.89,249.36,8.95,424.88,7.36,675.22-.21,33.56-.8,69.56-10.11,96.6-.67,2-41.3,7.08-41.73,5.5-3.55-13.25-3.75-29.86-3.8-45.39L1.69,15.64C18.73,4.22,63.15,1.5,63.15,1.5Z"/><path class="cls-1" d="M61.65,1.5c0,58.32-5.39,116.65-8.51,174.85-1.62,30.15-3,60.34-3.1,90.53-.1,31.72,2.93,63.18,5,94.81,5.08,76.72,7.58,153.57,8.06,230.45.46,73.5-.8,147-2,220.47q-1,59.25-1.78,118.5c-.46,39.82,1.52,80.45-3.5,120a172.06,172.06,0,0,1-5.54,27.51c-.75,2.52-.65,3.75-2.9,4.7a28.17,28.17,0,0,1-5.82,1.19,217.21,217.21,0,0,1-29.26,3.52c-1.26,0-2.47.24-2.93-.41-.59-.84-.74-4.36-1-5.62-.52-2.92-.89-5.86-1.19-8.81-1-9.73-1-19.53-1-29.3Q6,1011.32,6,978.71L5.23,721.1l-.75-258.7L3.74,204.78,3.36,75.43,3.27,42.82l0-15.22c0-2.54,0-5.07,0-7.61,0-3-.32-3.12,1.81-4.6C9.89,12,17,10.49,22.63,9.06c6.27-1.58,12.64-2.75,19-3.7C48.78,4.29,56,3.45,63.15,3c1.92-.12,1.93-3.12,0-3C44.1,1.19,22.72,3.39,5.4,11.83c-1.48.72-4.29,1.67-5.07,3.24C-.32,16.35.2,18.54.2,20l0,9.78L.33,62.38l.19,66.31.76,265.22L2,659.14l.76,265.22c.13,43.76-.46,87.6.46,131.35a175.62,175.62,0,0,0,2.23,27.13c.65,3.65.25,7.77,4.33,8.27,3.82.47,8.17-.43,12-.83q7.65-.82,15.27-2c3.93-.6,8.31-1,12.07-2.32s4-6.16,4.95-9.8c4.79-17.77,6.29-36.36,7.05-54.68,1.74-41.66,1-83.5,1.62-125.19,1.09-77.45,2.84-154.89,3.34-232.35.49-76.5-.43-153-3.94-229.45-1.9-41.44-4.76-82.8-7.84-124.16-2-27.39-1.42-55-.49-82.41,2.13-63.22,7.49-126.27,10-189.47.49-12.31.84-24.64.85-37A1.5,1.5,0,0,0,61.65,1.5Z"/></g></g></svg>