<svg xmlns="http://www.w3.org/2000/svg" viewBox="0 0 83.21 1094.03"><defs><style>.cls-1{fill:#faedd4;}</style></defs><title>Asset 13</title><g id="Layer_2" data-name="Layer 2"><g id="Curtains"><path d="M1.53,1.5Q1.18,496.89,5.25,992.26c.28,33.74,1,69.92,13.19,97.09.35.78,54.69,5,55.49,2.21,3.63-12.71,3.86-28,3.91-42.31L81.71,15.71C59.48,4.23,1.53,1.5,1.53,1.5Z"/><path class="cls-1" d="M0,1.5q-.08,116,.08,231.91.16,116.5.57,233,.4,116,1.05,231.9.65,116.49,1.54,233c.28,36.25-1.07,73,2.35,109.14,1.48,15.69,4.11,31.54,10.06,46.21,1,2.53,1.21,3.88,3.76,4.46a61.83,61.83,0,0,0,8.13.86q13.48,1.19,27,1.77c4.12.17,8.24.32,12.36.26,2,0,5,.29,6.84-.6,3.19-1.52,3.08-7.41,3.59-10.45a170.5,170.5,0,0,0,1.9-24.8c.35-18.91.19-37.84.26-56.76l.87-232.82.87-231.73.87-231.73L83,72.29l.21-56.57a1.49,1.49,0,0,0-.74-1.3C67.89,7.1,50.54,5,34.55,3c-11-1.38-22-2.43-33-3C-.4-.09-.4,2.91,1.53,3A376.12,376.12,0,0,1,53.67,8.93a158.51,158.51,0,0,1,17,4.07c2.47.76,5.47,1.47,7.71,2.79,1.47.86,1.34.51,1.83,2.11.71,2.32,0,6.23,0,8.7l-.23,60.92L79,332.3,78.11,576,77.2,819.7l-.46,122.94c-.15,40.11.77,80.39-.61,120.48-.15,4.27-.38,8.53-.84,12.78-.29,2.72-.65,5.43-1.15,8.11-.22,1.18-.55,6-1.17,6.5-1.37,1.2-6.37.5-8,.5-9.51,0-19-.65-28.52-1.34-4.11-.3-8.22-.62-12.32-1a16.07,16.07,0,0,1-3.69-.41c-2.1-.78-1.62-1.35-2.51-4A201.33,201.33,0,0,1,8,1032.8c-2.72-38.74-1.55-77.93-1.84-116.75q-.46-61-.85-121.93Q4.51,672.18,4,550.24q-.52-122.48-.77-245Q3,183.33,3,61.38,3,31.44,3,1.5A1.5,1.5,0,0,0,0,1.5Z"/></g></g></svg>