<svg xmlns="http://www.w3.org/2000/svg" viewBox="0 0 74.27 1091.01"><defs><style>.cls-1{fill:#faedd4;}</style></defs><title>Asset 10</title><g id="Layer_2" data-name="Layer 2"><g id="Curtains"><path d="M72.77,1.5c.08,128.51-6.61,258.5-6.93,387-.5,200.84,5.09,400.2,3.61,601-.25,33.64-.93,69.73-11.72,96.83-.31.78-48.61,5-49.32,2.21-3.22-12.68-3.43-27.89-3.48-42.2L1.5,15.67C21.26,4.22,72.77,1.5,72.77,1.5Z"/><path class="cls-1" d="M71.27,1.5c0,79.6-2.48,159.17-4.49,238.74q-3,119.07-2.29,238.13c.41,79.58,1.47,159.16,2.35,238.73.89,80,1.6,160,1.3,239.94-.14,36.56,1.94,74.74-6.27,110.63-.92,4-2,8-3.27,11.89-.56,1.72-1.11,4.92-2.1,5.59-1.9,1.29-7.09.84-9.33,1.05-9.44.88-18.92,1.59-28.4,1.78-1.67,0-7.84.93-9.19-.38-.44-.42-.55-3.06-.7-3.84-.51-2.63-.91-5.28-1.22-7.94-.52-4.53-.8-9.08-1-13.64-.75-19.7-.33-39.49-.4-59.2l-.4-119.34-.8-240.86L4.29,403l-.8-239.77L3.09,42.8l0-14.1L3,21.1c0-2.45-.45-3.83,1.38-5.27,3.82-3,10.79-4.17,15.42-5.36a250.76,250.76,0,0,1,36-6C61.47,3.83,67.12,3.31,72.77,3c1.92-.1,1.93-3.1,0-3C63.2.52,53.63,1.54,44.14,2.85,29.63,4.85,13.71,7.1.74,14.38A1.5,1.5,0,0,0,0,15.67l.77,230,.77,230,.77,230,.77,230c.13,38.19.11,76.39.39,114.59a231.51,231.51,0,0,0,1.32,26.46c.41,3.34.24,11.27,3.16,13.39,1.5,1.09,4.57.8,6.28.84,4,.09,8-.09,12-.29,8.77-.43,17.55-1.07,26.28-2,1.54-.17,4.22,0,5.61-.82,1.11-.65,1.2-1.38,1.7-2.66a103.39,103.39,0,0,0,3.69-11.53c8.77-32.77,7.41-67.83,7.59-101.46.41-76.4-.15-152.79-1-229.19s-1.85-152.64-2.41-229-.64-152.41,1-228.61S73,133.35,73.92,57.27q.35-27.88.35-55.77A1.5,1.5,0,0,0,71.27,1.5Z"/></g></g></svg>