<svg xmlns="http://www.w3.org/2000/svg" viewBox="0 0 99 1089.1"><defs><style>.cls-1{fill:#faedd4;}</style></defs><title>Asset 14</title><g id="Layer_2" data-name="Layer 2"><g id="Curtains"><path d="M1.5,1.5c-.23,263.94,7,530,9,794C11,859.45,5.33,921.3,6,985.3c.33,33.5,1.25,69.43,15.79,96.41,1,1.95,64.52,7.06,65.18,5.49,5.54-13.22,5.86-29.8,5.93-45.31L97.5,15.61C70.88,4.21,1.5,1.5,1.5,1.5Z"/><path class="cls-1" d="M0,1.5q-.09,117,1.41,233.91Q2.76,352.05,4.74,468.69,6.58,585.77,8.11,702.85c.45,38.73,1.35,77.51.84,116.24-.5,38.3-2.73,76.54-3.86,114.82C4,969,2.55,1005.15,7.58,1040a156.22,156.22,0,0,0,5.17,23.75,112.13,112.13,0,0,0,3.86,10.63c.94,2.21,2.2,6.78,4.08,8.38,3,2.55,10.1,2.18,13.75,2.59,16.42,1.86,33.68,4.26,50.23,3.63,1.43-.06,2.51,0,3.55-1,1.84-1.81,2.52-7.15,3.1-9.53a94.37,94.37,0,0,0,1.92-11.18c2.11-18,1.17-36.53,1.25-54.65l1.06-235.42,1.06-234.33,1.06-235.42L98.74,73.11,99,15.61a1.56,1.56,0,0,0-1.1-1.45C80,6.67,59.31,4.82,40.15,2.85,27.31,1.52,14.41.51,1.5,0-.43-.07-.42,2.93,1.5,3c12.48.49,25,1.46,37.38,2.72C58.18,7.66,79,9.5,97.1,17.06L96,15.61l-1,230-1,230-1,230-1,230c-.17,37.93.14,75.9-.55,113.82-.16,8.86-.58,17.8-2.46,26.48-.45,2.06-1.15,8.31-2.64,9.66-.48.44-.93.34-2,.45-7.14.73-15-.6-22.12-1.12-9.23-.68-18.46-1.47-27.65-2.51-3.15-.36-6.63-.45-9.7-1.32-.57-.16-1.58-.12-2.07-.49-1.92-1.46-3.63-8-4.47-10.16C6.08,1039.1,7.28,1003.26,7.43,970.24c.17-37.61,2.23-75.18,3.54-112.76,1.32-37.91,1-75.77.58-113.69Q10.39,629.45,8.47,515.13,6.69,400.64,5,286.15q-1.5-114.33-2-228.68Q3,29.49,3,1.5A1.5,1.5,0,0,0,0,1.5Z"/></g></g></svg>