<svg xmlns="http://www.w3.org/2000/svg" viewBox="0 0 88.32 1089.32"><defs><style>.cls-1{fill:#faedd4;}</style></defs><title>Asset 8</title><g id="Layer_2" data-name="Layer 2"><g id="Curtains"><path d="M86.82,1.5c.2,263.94-6.18,530-8,794-.44,64,4.61,125.85,4,189.85-.3,33.5-1.11,69.43-14,96.41-.93,1.95-57.34,7.06-57.93,5.49C6,1074,5.68,1057.4,5.62,1041.9L1.5,15.61C25.16,4.21,86.82,1.5,86.82,1.5Z"/><path class="cls-1" d="M85.32,1.5Q85.4,123.32,84,245.12q-1.29,122.59-3.16,245.17-1.69,121.9-3,243.8c-.38,40.43-.86,80.84.36,121.26,1.22,40.08,3.24,80.15,3.22,120.26,0,18.54-.09,37.17-1.84,55.64a197.26,197.26,0,0,1-4.26,27c-1,4-2.07,8-3.41,11.91q-.84,2.46-1.79,4.88c-.06.15-1.59,5-2.23,5.53-1.59,1.27-5.89,1.18-7.8,1.44-4.61.64-9.24,1.14-13.87,1.62-9.27.95-18.58,1.81-27.9,2.22-1.49.07-3,.14-4.47.13a4.38,4.38,0,0,1-1.54,0c-1-.53.1,0-.54-.84-2-2.67-2.26-8.36-2.8-11.58a135.41,135.41,0,0,1-1.53-16c-.89-19.65-.4-39.42-.47-59.09l-.5-123.68-1-245.18-1-245.18-1-245.18L3.25,77.45,3.13,47.07,3.07,31.89l0-7.59c0-1.68-.86-6.4.05-7.77S8.34,14.44,9.83,14c2.75-.89,5.55-1.66,8.36-2.35C24,10.18,29.92,9.07,35.84,8.12,47.65,6.22,59.56,5,71.48,4c5.11-.41,10.22-.77,15.34-1,1.92-.09,1.93-3.09,0-3C75.11.52,63.4,1.56,51.76,2.93c-17,2-35.35,4-51,11.39A1.48,1.48,0,0,0,0,15.61L.93,247.77,1.87,481,2.8,713.18l.94,233.25.23,57.5c.08,18.83-.52,37.81.61,56.61a104.51,104.51,0,0,0,3.48,22.82c.9,3.11.83,5.08,3.88,5.59,6.5,1.08,14.3-.52,20.79-1.06,8.92-.74,17.84-1.59,26.71-2.78a49.52,49.52,0,0,0,8.29-1.37c3-.94,3.33-3.23,4.53-6.12,12.5-30.1,12-64.62,12.12-96.64.19-38-1.56-76-2.83-114-1.29-38.23-1.24-76.4-.91-114.64q1-115.94,2.74-231.87Q85,405,86.47,289.39q1.36-116,1.8-231.92.07-28,.05-56A1.5,1.5,0,0,0,85.32,1.5Z"/></g></g></svg>