<svg xmlns="http://www.w3.org/2000/svg" viewBox="0 0 94.83 1098.05"><defs><style>.cls-1{fill:#faedd4;}</style></defs><title>Asset 12</title><g id="Layer_2" data-name="Layer 2"><g id="Curtains"><path d="M1.5,1.5C1.46,51.5,11,117,14,166c6.72,109.83-9.26,205.21-1,316,12.79,171.64-8.81,344.71-7.2,516.81.3,32.3,1.11,66.82,13.16,93.66.62,1.38,65.54,6.64,66.62,2.43,3.08-12,3.3-25.71,3.36-38.72L93.33,15.81C67.87,4.25,1.5,1.5,1.5,1.5Z"/><path class="cls-1" d="M0,1.5C.09,70.61,13,139,14,208.13c1.14,74.76-6.2,149.36-4.83,224.13.72,39.54,4.6,78.93,5.67,118.47s.72,78.93-.32,118.38c-2.12,79.8-7.12,159.48-9.32,239.27-1.06,38.41-1.94,77-.47,115.4.65,17,2.08,34.22,6.37,50.75,1,3.73,2.09,7.43,3.4,11.06.78,2.16,1.58,6.39,3.34,8,1,.94,3,.94,4.28,1.13A345.72,345.72,0,0,0,74.35,1098c3.55,0,10.19.76,12.57-2.52,1.54-2.13,1.57-7.2,1.94-9.84.68-4.85,1.05-9.74,1.26-14.64.4-9.3.29-18.62.33-27.93l1-242.61,1-241.52,1-241.52,1-242.61.25-59a1.47,1.47,0,0,0-.74-1.3C77.1,7,57.44,5,39.15,3,26.64,1.58,14.07.53,1.5,0-.43-.08-.43,2.92,1.5,3a516,516,0,0,1,53,4.91c6.23.91,12.45,2,18.61,3.31,5.21,1.14,11.55,2.08,16.31,4.59,1.8.95,2.1.89,2.39,3.28a63,63,0,0,1,0,7.65l-.07,16.39-.13,31.69L90.49,331.63,89.4,587.36,88.31,843.08l-.54,127.86-.27,64.48c0,10.2,0,20.42-.2,30.62-.11,4.61-.31,9.22-.75,13.81-.26,2.75-.61,5.49-1.08,8.22-.18,1-.37,5.23-1.19,6-1.3,1.29-6.27.81-7.9.85-4.51.12-9,0-13.52-.16q-15.44-.56-30.83-2c-3.31-.31-7.07-.28-10.29-1.17-.52-.14-1.73,0-2.14-.44-1-1-1.6-4.84-2.15-6.38q-1.2-3.33-2.2-6.74c-5.37-18.19-6.88-37.33-7.53-56.2-2.88-83,2.27-166.37,6-249.28,3.73-83.9,7-168,3.13-251.93-1.91-41.21-5.15-82.1-4.66-123.4.47-39.27,2.66-78.49,4-117.74,1.36-40,1.72-80.1-1.09-120.06C12.52,123.59,8,87.9,5.28,52.06,4,35.24,3,18.38,3,1.5A1.5,1.5,0,0,0,0,1.5Z"/></g></g></svg>