<svg xmlns="http://www.w3.org/2000/svg" viewBox="0 0 74.29 1094.02"><defs><style>.cls-1{fill:#faedd4;}</style></defs><title>Asset 7</title><g id="Layer_2" data-name="Layer 2"><g id="Curtains"><path d="M72.77,1.5q.31,495.39-3.31,990.76c-.25,33.74-.93,69.92-11.72,97.09-.31.78-48.61,5-49.32,2.21-3.22-12.71-3.43-28-3.48-42.31L1.5,15.71C21.26,4.23,72.77,1.5,72.77,1.5Z"/><path class="cls-1" d="M71.27,1.5q.07,120.31-.08,240.62t-.54,240.62q-.39,119.76-1,239.52-.62,120.3-1.47,240.6c-.26,36.73,2,75.32-7.14,111.23-.93,3.67-2,7.3-3.26,10.88-.79,2.24-.2,2.49-1.8,3.25-2.63,1.24-7.36.84-10.21,1.1-9.41.85-18.88,1.58-28.33,1.67-1.64,0-3.29,0-4.93-.06a6.58,6.58,0,0,1-2-.15c-1.24-.57-.47-.08-1.1-1.36-1.79-3.66-1.71-9.64-2.07-13.53-.43-4.58-.65-9.18-.77-13.77-.53-19.5-.25-39-.31-58.56L5.88,882.8l-.8-240.43L4.29,403l-.8-240.43L3.09,41.82,3,27.68c0-2.54,0-5.08,0-7.62,0-2.38-.29-2.89,1.39-4.2,4-3.12,11.26-4.32,16-5.53a253.75,253.75,0,0,1,35.4-5.9C61.47,3.83,67.12,3.31,72.77,3c1.92-.1,1.93-3.1,0-3C63.2.52,53.63,1.54,44.14,2.86,29.63,4.87,13.7,7.12.74,14.42A1.5,1.5,0,0,0,0,15.71L.77,246.36l.76,229.55.76,229.55.77,230.64q.19,57.06.38,114.13c0,8.88.13,17.78,1,26.62.36,3.58.84,7.15,1.53,10.68.3,1.55.29,4.17,1.56,5.32s4,1,5.62,1.1c3.82.15,7.66,0,11.47-.18,8.93-.4,17.86-1.05,26.75-2,1.84-.19,4.73,0,6.43-.85,3.25-1.6,4-8.57,5-11.76,9.37-32.52,8-67.56,8.29-101.05q.83-114.86,1.44-229.72t1-229.72q.41-115.41.6-230.82.19-114.87.17-229.73,0-28.31,0-56.62A1.5,1.5,0,0,0,71.27,1.5Z"/></g></g></svg>