<svg xmlns="http://www.w3.org/2000/svg" viewBox="0 0 84.62 1098.03"><defs><style>.cls-1{fill:#faedd4;}</style></defs><title>Asset 6</title><g id="Layer_2" data-name="Layer 2"><g id="Curtains"><path d="M83.12,1.5C83.16,51.5,74.71,117,72,166c-6,109.83,8.23,205.21.89,316-11.37,171.64,7.83,344.71,6.4,516.81-.27,32.3-1,66.82-11.69,93.66-.55,1.38-58.25,6.64-59.21,2.43-2.74-12-2.93-25.71-3-38.72L1.5,15.81C24.13,4.25,83.12,1.5,83.12,1.5Z"/><path class="cls-1" d="M81.62,1.5c0,35.17-3.42,70.27-6.5,105.27-3.21,36.52-5.82,73-6.07,109.64-.52,78.26,6.55,156.41,3.91,234.68-1.39,41.26-4.51,82.37-5,123.68s.26,82.91,1.53,124.34c2.56,83.34,7.22,166.61,8.22,250,.24,20.14.3,40.29,0,60.44-.29,19.2-.95,38.57-4.5,57.49-.79,4.2-1.72,8.36-2.85,12.48-.55,2-1.14,4-1.79,6-.34,1-1.08,5.17-1.63,5.71-1.16,1.13-5.6,1-7.06,1.15-9.72,1.17-19.52,1.92-29.3,2.38-4.59.21-9.2.38-13.8.25a42.79,42.79,0,0,1-4.49-.27c-.46-.06-3-.8-2.43-.2-.81-.81-.88-4.35-1.07-5.49-.44-2.71-.76-5.45-1-8.18-.45-4.92-.65-9.85-.75-14.79-.22-10.2-.14-20.42-.18-30.62L6.38,909.74l-1-252.44-1-251.35-1-251.35L3,28.92c0-3.3-1.38-10.56.91-12.64,1.75-1.6,5.85-2.31,8.09-3A157.93,157.93,0,0,1,29.64,9c12.23-2.32,24.61-3.78,37-4.87,5.48-.48,11-.91,16.48-1.17,1.92-.09,1.93-3.09,0-3C71.9.53,60.67,1.59,49.52,3,33.25,5,15.61,7.13.74,14.51A1.48,1.48,0,0,0,0,15.81L.91,255.14l.91,239.33L2.72,733.8l.91,239.33.23,60.11c.07,18.14-.87,36.69,1.77,54.7.46,3.12.09,7.7,3.38,9.15,2.14.95,5.11.8,7.4.87a253.23,253.23,0,0,0,27.78-1.11c7.21-.56,15-.67,22.1-2.42,2.6-.64,2.73-1.26,3.75-4A141,141,0,0,0,76.44,1066c6.28-35.41,4.68-72.43,4.36-108.24-.7-79-4.88-158-7.6-237-2.72-78.83-4-157.83,1.08-236.59,4.81-74.67-.18-149.15-1.84-223.82-.82-36.74-.52-73.51,2.1-110.18,2.4-33.66,6-67.22,8.24-100.89,1.06-15.9,1.82-31.83,1.84-47.76A1.5,1.5,0,0,0,81.62,1.5Z"/></g></g></svg>