<svg xmlns="http://www.w3.org/2000/svg" viewBox="0 0 84.62 1084.02"><defs><style>.cls-1{fill:#faedd4;}</style></defs><title>Asset 9</title><g id="Layer_2" data-name="Layer 2"><g id="Curtains"><path d="M83.12,1.5c0,52.89-15.53,137.72-19.08,189.05C45,465.05,81.65,710.78,79.33,986.06c-.27,31.88-1,66-11.69,92.46-.55,1.36-58.25,6.56-59.21,2.4-2.74-11.8-2.93-25.38-3-38.22L1.5,15.62C24.13,4.21,83.12,1.5,83.12,1.5Z"/><path class="cls-1" d="M81.62,1.5c-.11,62.34-14.1,123.8-18.84,185.8-6.17,80.6-6.68,161.7-4.92,242.47,1.74,79.47,6,158.85,10.21,238.22,4.23,80.54,8.24,161.11,9.47,241.76.61,40.06,2.11,80.77-1.3,120.74a210.19,210.19,0,0,1-4.14,28.25c-.91,4.06-2,8.08-3.26,12-.67,2.07-1.2,5.77-2.79,6.68-2.23,1.28-6.73,1-9.23,1.25-4.77.51-9.54.92-14.32,1.28-9.39.69-19,1.51-28.43.86a11.29,11.29,0,0,1-3.8-.5c-1.23-.6-1.39-4.61-1.76-7.1-1.43-9.78-1.52-19.72-1.57-29.58q-.32-63.06-.48-126.11l-1-254.61-1-252.45-1-254.61L3.05,29.65C3,27,1.78,18.08,3.51,16.32c1.49-1.52,5.86-2.33,7.86-3A155.06,155.06,0,0,1,29.25,9C41.55,6.71,54,5.26,66.47,4.17,72,3.69,77.56,3.26,83.12,3c1.92-.09,1.93-3.09,0-3C71.9.53,60.68,1.57,49.54,2.94,33.26,4.93,15.64,7,.74,14.33A1.48,1.48,0,0,0,0,15.62L.93,257.29l.92,240.59.93,241.66L3.7,980.12q.12,30.21.23,60.42c0,9.15,0,18.33.95,27.44a95.84,95.84,0,0,0,1.7,11.55c.3,1.34.35,2.26,1.42,3.1,1.48,1.17,4.32,1.09,6.07,1.21,4,.27,8,.17,12,0,9.68-.3,19.37-1,29-2,3.48-.35,11.21.15,13.87-2.62,1.81-1.88,2.59-6.94,3.33-9.37,1.32-4.28,2.4-8.64,3.31-13a219.27,219.27,0,0,0,3.5-24.48c3.43-37.45,2.07-75.62,1.59-113.19-1-77-4.55-154-8.54-230.93C68.22,613,64,537.73,61.71,462.37,59.39,385.22,59.22,308,63.13,230.89c1.62-32,4.29-63.69,8.32-95.45,3.94-31.07,8.32-62.12,11.08-93.33,1.19-13.5,2.08-27,2.1-40.61A1.5,1.5,0,0,0,81.62,1.5Z"/></g></g></svg>