<svg xmlns="http://www.w3.org/2000/svg" viewBox="0 0 1057.42 107.59"><title>Asset 4</title><g id="Layer_2" data-name="Layer 2"><g id="Logo"><path d="M116.81,95.93c-1.28,7.3-7.68,11.53-14.73,11.66C76.21,108,72.37,82,61.35,63.27c-2.43-3.84-10-4.35-14.35-4.35H43L37.66,78.77V79c0,4.48,5.25,7.56,5.25,9.35A1.65,1.65,0,0,1,41.11,90h-38a1.76,1.76,0,0,1-1.92-1.67c0-1.92,4.61-4.61,6.79-10.12L26.9,6c-5.38,0-10,3.71-12.3,8.45a24.06,24.06,0,0,0-1.67,4.87,6.79,6.79,0,0,1-6.28,5.25A6.61,6.61,0,0,1,0,17.93C0,9.73,14.6.38,29.59.13,35.61,0,41.37,0,46.88,0c17,0,31.38.64,40.47,3.59,14.73,4.48,22,15.11,22,25.87,0,11.78-8.84,23.7-26.38,27.54-3.46.64-6.66,1.28-10.63,1.67,11.27,8.2,20.37,30.74,31,35a6.17,6.17,0,0,0,5,0c1.41-.64,2-2.43,3.46-3.07a3.3,3.3,0,0,1,3.71.38C117.07,92.09,117.07,94.14,116.81,95.93ZM48.29,54.43a32.57,32.57,0,0,0,17.55-5C72.75,45,77.23,35.09,77.23,26c0-5.38-1.54-10.5-4.87-14.22A14.78,14.78,0,0,0,61.09,6.28h-4L44.19,54.43Z"/><path d="M155.11,27.41c25.1,0,38.17,14.22,38.17,29.33,0,20.11-20.62,35-45.47,35-25.1,0-38.3-13.06-38.3-28.31C109.51,43.42,130,27.41,155.11,27.41Zm1.54,7.81c-10,0-17.42,27.67-17.42,39.83,0,6.53,2.82,8.84,6.92,8.84,10,0,17.42-27.54,17.42-40.09C163.56,37.4,160.88,35.22,156.65,35.22Z"/><path d="M268.85,41.37a5.92,5.92,0,0,1-6.15,6.15c-11.27,0-5.25-13.7-18.06-13.7C234.27,33.81,228,60.2,228,72.11,228,79.79,232.22,83,238.75,83c19,0,13.19-13.71,23.18-13.71,5,0,7.69,5.12,4.87,9.48-4.87,7-18.7,13.19-29.07,13.19-22.29.26-37.91-12.3-37.91-29.59,0-16.39,18.19-35.22,42.27-35.22C253.74,27.15,268.85,32.4,268.85,41.37Z"/><path d="M336.86,46.37s12.55,24.21,17.55,31.51c3.33,4.87,7,8.58,7,10.5A1.76,1.76,0,0,1,359.53,90h-34.2a1.65,1.65,0,0,1-1.79-1.67c0-1.67,3.2-6.79,1.28-10.5L315.47,60.2a3.78,3.78,0,0,0-5.64-1.54l-5.38,21.26c-1,5.25,1.92,6.53,1.92,8.45A1.65,1.65,0,0,1,304.58,90h-31a1.76,1.76,0,0,1-1.92-1.67c0-1.92,2.82-3.46,4.23-8.45.38-1.41,12.94-50.72,17.67-68.91-4.1,0-6.15,1-7.3,4.87a7.25,7.25,0,0,1-6.66,5.38,6.56,6.56,0,0,1-6.4-6.66c0-7.81,11-10.25,22-10.25h25.62A2.18,2.18,0,0,1,323,7.17L312.4,48.8a7.56,7.56,0,0,0,1.79.26c2,0,5.25-.26,10-4.1,6.66-6.15,13.83-18.7,30-18.7,9.61,0,13.58,4.87,13.58,9.09a7.64,7.64,0,0,1-7.81,7.94c-5.76,0-6.66-5.76-12-5.76C342.88,37.53,337,44.7,336.86,46.37Z"/><path d="M445.86,59H396.81a45.3,45.3,0,0,0-1.92,12c0,7.94,6.79,13.06,15.75,13.06,19.85,0,17.93-12.94,27.15-12.94,4.1,0,6.15,2.82,6.15,5.76,0,8.07-16.52,15-36.12,15-26.9,0-41.11-12.68-41.11-30,0-16.65,18.57-34.84,42.78-34.84,21.65,0,38.43,11,38.43,29.72V57A2,2,0,0,1,445.86,59Zm-33-22.93c-6.79,0-11.27,6.53-13.45,14.6h21.39C422.43,41.88,420.76,36.12,412.82,36.12Z"/><path d="M510.42,73.9c0,5.51-10.63,17.16-31.64,17.16-15.11,0-24.72-9.86-21.52-22.67C460.21,57.25,463,46.11,466,35h-8.2a4.56,4.56,0,0,1-4.61-4.48A4.48,4.48,0,0,1,457.77,26c35.35-1.67,31.77-21.65,39.45-21.65,2.56,0,4.36,1.41,4.36,4,0,1-5,17.68-5,17.68h8.07a4.63,4.63,0,0,1,4.87,4.48A4.71,4.71,0,0,1,504.65,35H494.41L484.29,73.65c-1.41,5.38,1,7.56,5,7.56,11.27,0,7.43-12.68,15.75-12.68A5.1,5.1,0,0,1,510.42,73.9Z"/><path d="M663.81,95.93c-1.28,7.3-7.68,11.53-14.73,11.66C623.21,108,619.37,82,608.35,63.27c-2.43-3.84-10-4.35-14.35-4.35h-4l-5.38,19.85V79c0,4.48,5.25,7.56,5.25,9.35A1.65,1.65,0,0,1,588.11,90h-38a1.76,1.76,0,0,1-1.92-1.67c0-1.92,4.61-4.61,6.79-10.12L573.9,6c-5.38,0-10,3.71-12.3,8.45a24.06,24.06,0,0,0-1.67,4.87,6.79,6.79,0,0,1-6.28,5.25A6.61,6.61,0,0,1,547,17.93C547,9.73,561.6.38,576.59.13c6-.13,11.78-.13,17.29-.13,17,0,31.38.64,40.47,3.59,14.73,4.48,22,15.11,22,25.87,0,11.78-8.84,23.7-26.38,27.54-3.46.64-6.66,1.28-10.63,1.67,11.27,8.2,20.37,30.74,31,35a6.17,6.17,0,0,0,5,0c1.41-.64,2-2.43,3.46-3.07a3.3,3.3,0,0,1,3.71.38C664.07,92.09,664.07,94.14,663.81,95.93Zm-68.52-41.5a32.57,32.57,0,0,0,17.55-5c6.92-4.48,11.4-14.35,11.4-23.44,0-5.38-1.54-10.5-4.87-14.22a14.78,14.78,0,0,0-11.27-5.51h-4L591.19,54.43Z"/><path d="M702.11,27.41c25.1,0,38.17,14.22,38.17,29.33,0,20.11-20.62,35-45.47,35-25.1,0-38.3-13.06-38.3-28.31C656.51,43.42,677,27.41,702.11,27.41Zm1.54,7.81c-10,0-17.42,27.67-17.42,39.83,0,6.53,2.82,8.84,6.92,8.84,10,0,17.42-27.54,17.42-40.09C710.56,37.4,707.88,35.22,703.65,35.22Z"/><path d="M815.85,41.37a5.92,5.92,0,0,1-6.15,6.15c-11.27,0-5.25-13.7-18.06-13.7C781.27,33.81,775,60.2,775,72.11,775,79.79,779.22,83,785.75,83c19,0,13.19-13.71,23.18-13.71,5,0,7.69,5.12,4.87,9.48-4.87,7-18.7,13.19-29.07,13.19-22.29.26-37.91-12.3-37.91-29.59,0-16.39,18.19-35.22,42.27-35.22C800.74,27.15,815.85,32.4,815.85,41.37Z"/><path d="M883.86,46.37s12.55,24.21,17.55,31.51c3.33,4.87,7,8.58,7,10.5A1.76,1.76,0,0,1,906.53,90h-34.2a1.65,1.65,0,0,1-1.79-1.67c0-1.67,3.2-6.79,1.28-10.5L862.47,60.2a3.78,3.78,0,0,0-5.64-1.54l-5.38,21.26c-1,5.25,1.92,6.53,1.92,8.45A1.65,1.65,0,0,1,851.58,90h-31a1.76,1.76,0,0,1-1.92-1.67c0-1.92,2.82-3.46,4.23-8.45.38-1.41,12.94-50.72,17.67-68.91-4.1,0-6.15,1-7.3,4.87a7.25,7.25,0,0,1-6.66,5.38,6.56,6.56,0,0,1-6.4-6.66c0-7.81,11-10.25,22-10.25h25.62A2.18,2.18,0,0,1,870,7.17L859.4,48.8a7.56,7.56,0,0,0,1.79.26c2,0,5.25-.26,10-4.1,6.66-6.15,13.83-18.7,30-18.7,9.61,0,13.58,4.87,13.58,9.09a7.64,7.64,0,0,1-7.81,7.94c-5.76,0-6.66-5.76-12-5.76C889.88,37.53,884,44.7,883.86,46.37Z"/><path d="M992.86,59H943.81a45.3,45.3,0,0,0-1.92,12c0,7.94,6.79,13.06,15.75,13.06,19.85,0,17.93-12.94,27.15-12.94,4.1,0,6.15,2.82,6.15,5.76,0,8.07-16.52,15-36.12,15-26.9,0-41.11-12.68-41.11-30,0-16.65,18.57-34.84,42.78-34.84,21.65,0,38.43,11,38.43,29.72V57A2,2,0,0,1,992.86,59Zm-33-22.93c-6.79,0-11.27,6.53-13.45,14.6h21.39C969.43,41.88,967.76,36.12,959.82,36.12Z"/><path d="M1057.42,73.9c0,5.51-10.63,17.16-31.64,17.16-15.11,0-24.72-9.86-21.52-22.67C1007.21,57.25,1010,46.11,1013,35h-8.2a4.56,4.56,0,0,1-4.61-4.48,4.48,4.48,0,0,1,4.61-4.48c35.35-1.67,31.77-21.65,39.45-21.65,2.56,0,4.36,1.41,4.36,4,0,1-5,17.68-5,17.68h8.07a4.63,4.63,0,0,1,4.87,4.48,4.71,4.71,0,0,1-4.87,4.48h-10.25l-10.12,38.68c-1.41,5.38,1,7.56,5,7.56,11.27,0,7.43-12.68,15.75-12.68A5.1,5.1,0,0,1,1057.42,73.9Z"/></g></g></svg>