<svg xmlns="http://www.w3.org/2000/svg" viewBox="0 0 94.83 1084.38"><defs><style>.cls-1{fill:#faedd4;}</style></defs><title>Asset 15</title><g id="Layer_2" data-name="Layer 2"><g id="Curtains"><path d="M1.5,1.5C1.46,54.39,19,139.22,23,190.55,44.36,465,3.16,710.78,5.77,986.06c.3,31.88,1.11,66,13.16,92.46.62,1.36,65.54,6.56,66.62,2.4,3.08-11.8,3.3-25.38,3.36-38.22L93.33,15.62C67.87,4.21,1.5,1.5,1.5,1.5Z"/><path class="cls-1" d="M0,1.5C.11,61.42,14.46,120.54,20.51,180c7.71,75.79,8,152.75,6.67,228.84-1.37,76.3-5.64,152.51-10.13,228.68C12.52,714.35,7.82,791.24,5.56,868.24,4.41,907.81,3.89,947.41,4.28,987c.17,17.47.48,35,2.78,52.34a167.47,167.47,0,0,0,5,24.9,113.41,113.41,0,0,0,4,11.53c.55,1.34.94,3.29,2.19,4.14s3.81.81,5.3,1c3.62.46,7.26.8,10.89,1.11,9.91.87,19.85,1.51,29.79,1.83,6.14.2,14.39,1.42,20.34-.69,3.15-1.12,3-4.18,3.57-7.27a152.77,152.77,0,0,0,2.13-25.42c1.47-81,.74-162,1.09-243l1.06-244.9,1.05-243.82L94.57,75l.26-59.34a1.47,1.47,0,0,0-.74-1.3c-17-7.44-36.66-9.42-55-11.41C26.63,1.56,14.07.52,1.5,0-.43-.08-.43,2.92,1.5,3A518.28,518.28,0,0,1,55.63,8c6.34.94,12.67,2,18.93,3.42,4.64,1,11.84,1.81,15.81,4.57,2.78,1.93,1.42,9.31,1.4,12.57L91.7,45.83l-.13,31.29L90.45,335,89.34,593.89,88.22,851.74l-.55,128.38c-.09,21.5-.13,43-.28,64.51-.07,10.16-.22,20.45-2.09,30.47-.39,2.07-.16,4.29-1.83,5.26-1.05.61-3.21.43-4.38.49-18.32,1.06-37.61-.55-55.78-3a10,10,0,0,1-3.06-.48c-1.76-1-2.62-5.87-3.39-8.09a147.35,147.35,0,0,1-6.26-26.17c-2.94-19.21-3.16-38.74-3.34-58.14-.75-82.8,2.54-165.56,7-248.22,4.4-80.55,9.88-161.05,13.24-241.66,3.4-81.75,4.52-163.65.63-245.4-1.67-35-4.17-69.8-9-104.5C14.54,111.53,9,78,5.57,44.13,4.12,30,3,15.75,3,1.5A1.5,1.5,0,0,0,0,1.5Z"/></g></g></svg>