<svg xmlns="http://www.w3.org/2000/svg" viewBox="0 0 73.91 1091.38"><defs><style>.cls-1{fill:#faedd4;}</style></defs><title>Asset 17</title><g id="Layer_2" data-name="Layer 2"><g id="Curtains"><path d="M3.26,1.5C3.22,79.73,21.76,234,14.76,312-7.62,561.36,4.69,736.89,6.48,987.23c.24,33.56.9,69.56,11.38,96.6.76,2,46.47,7.08,46.95,5.5,4-13.25,4.22-29.86,4.27-45.39L72.41,15.64C53.24,4.21,3.26,1.5,3.26,1.5Z"/><path class="cls-1" d="M1.76,1.5c0,56.41,5.75,112.84,9.23,169.1,1.84,29.8,3.46,59.64,3.79,89.51.33,29.54-2.25,58.6-4.57,88-5.91,75-9.06,150.24-9.93,225.49C-.55,645.33.6,717,1.95,788.73c.71,37.89,1.46,75.78,2,113.67.61,39.66-.13,79.49,1.73,119.11.82,17.51,2.45,35.25,7.2,52.18,1,3.58,1.61,10.09,5.18,12,2.51,1.34,6.36,1.42,9.1,1.85,9.43,1.46,18.95,2.55,28.47,3.26,2.5.19,6.48,1.1,8.93.21,3.54-1.28,3.48-8.56,4-11.77,3-18.74,2-38.13,2.05-57l.2-63,.41-126.09.82-252.18.82-252.18L73.71,77.6l.2-62a1.51,1.51,0,0,0-.74-1.3C60.64,7.12,45.15,4.84,31,2.84,21.84,1.54,12.55.52,3.26,0,1.34-.1,1.34,2.9,3.26,3c19.67,1.09,40.36,3.28,59,9.76,2.19.76,6.57,1.65,8.09,3.46,1,1.21.5,4.23.5,5.94l0,9.78-.11,32.61-.21,65.22-.85,262-.85,260.88-.85,262q-.21,65.16-.42,130.32c0,10.07-.13,20.21-1.4,30.21-.33,2.62-.76,5.22-1.3,7.81-.18.85-.61,4.95-.82,5.13-.54.48-3,0-3.69,0a285,285,0,0,1-30-3.09c-3-.43-8.15-.36-10.76-2-1.62-1-1.9-4-2.52-6a140.55,140.55,0,0,1-3.55-13.62c-4.06-19.22-4.93-39-5.31-58.6-.81-41.19-.84-82.4-1.54-123.59C5.37,805.12,3.48,729,3.07,652.92c-.41-75.81.85-151.62,5-227.32,2.17-39.79,5.8-79.43,8.65-119.16,2-27.22,1.21-54.64.12-81.89C14.33,162.17,8.41,100,5.68,37.6c-.53-12-.91-24.06-.92-36.1A1.5,1.5,0,0,0,1.76,1.5Z"/></g></g></svg>