<svg xmlns="http://www.w3.org/2000/svg" viewBox="0 0 83.18 1091.06"><defs><style>.cls-1{fill:#faedd4;}</style></defs><title>Asset 16</title><g id="Layer_2" data-name="Layer 2"><g id="Curtains"><path d="M1.5,1.5C1.41,130,8.93,260,9.29,388.51c.56,200.84-5.72,400.2-4.07,601,.28,33.64,1,69.73,13.19,96.83.35.78,54.69,5,55.49,2.21,3.63-12.68,3.86-27.89,3.91-42.2L81.68,15.67C59.45,4.22,1.5,1.5,1.5,1.5Z"/><path class="cls-1" d="M0,1.5C0,78.24,2.59,154.93,4.81,231.63S8.06,385.27,7.72,462.14c-.34,77.07-1.43,154.14-2.43,231.21S3.4,847.49,3.45,924.57c0,36.6-1.22,73.66,1.89,110.16,1.32,15.48,3.67,31.11,9.08,45.75,1,2.79,1.57,6.51,4.5,7.55,2.16.77,5.16.62,7.41.82q13.3,1.22,26.65,1.81c4.26.19,8.52.36,12.78.34,2.3,0,5.35.3,7.57-.49,3.29-1.18,3.13-5.67,3.69-8.69a152,152,0,0,0,2.16-23.61c.53-19.12.25-38.28.32-57.4l.87-232.18.87-232.18.87-232.18L83,72.09l.21-56.42a1.48,1.48,0,0,0-.74-1.3C67.85,7.08,50.51,5,34.52,3c-11-1.37-22-2.42-33-2.95C-.43-.09-.42,2.91,1.5,3A374.32,374.32,0,0,1,54.29,9a154,154,0,0,1,16.89,4.1,35.42,35.42,0,0,1,7.17,2.61c1.78,1,1.79,1,1.82,3.18,0,2.89,0,5.79,0,8.68l-.23,60.76L79,332.48l-.92,244.11L77.16,820.7l-.46,121.51L76.48,1003c-.08,20,.44,40.17-.49,60.19-.22,4.73-.57,9.46-1.25,14.14-.29,2-.73,9.2-2.2,10.32s-6.94.39-8.85.37c-9.6-.1-19.2-.72-28.77-1.44-3.93-.29-7.87-.6-11.8-1-.86-.09-2.64,0-3.41-.41-1.5-.88-2-4.32-2.69-6.26-6.08-16.86-8.23-34.94-9.3-52.74-2.32-38.77-1.3-77.89-1.26-116.71q.06-60.53.72-121.05c.81-81,2.11-162,2.92-243s1.32-161.84-.44-242.74c-1.76-80.73-5-161.42-6.21-242.16Q3,31,3,1.5A1.5,1.5,0,0,0,0,1.5Z"/></g></g></svg>