<svg xmlns="http://www.w3.org/2000/svg" viewBox="0 0 535.38 701.43"><defs><style>.cls-1{fill:#faedd4;}</style></defs><title>Asset 3</title><g id="Layer_2" data-name="Layer 2"><g id="Hands"><path class="cls-1" d="M224.23,34.56c8.45,1.13,12.75,4.05,15.38,12.16,9.62,29.57,12,34.05,24.9,65.57,9.62,23.47,15,52.38,25,75.72"/><path class="cls-1" d="M247.2,231.29,201.84,22.23,201.05,18l-.83-6.58a9.45,9.45,0,0,1,2.62-8.91,9.45,9.45,0,0,1,9-2.15l6.5,1c10.46,75.6,25.63,138,53.87,208.87"/><path class="cls-1" d="M201.71,23.36c-1.63-1.69-6.4-.23-7.25,2s-2.36,4.94-2.17,7.28a37.57,37.57,0,0,0,3.2,11.13c1.48,3.56,7.4,6,10,3.15"/><path class="cls-1" d="M218.28,6.94c-2.83-1-6.09.93-7.4,3.64s-1.12,5.91-.62,8.88c.45,2.71,1.19,5.5,3,7.54s5.09,3,7.43,1.6"/><path class="cls-1" d="M18.2,391.22c-3.54-4,.09-9.57,4.9-12.26s10.06-3.3,16.05-3.71c4.08-.28,8.55-.49,12,1.37s4.56,6.64.92,8"/><path class="cls-1" d="M267.17,119c6.74-.92,12.32,5.13,15,9.88,11.63,20.28,23.24,64.74,23.24,64.74,1.11,8,3.87,20.21,5,28.22a188.09,188.09,0,0,0,5,24.9c2.59,9.12,1.92,17.48,5.93,26.07,9.63,20.67,19.29,41.37,30.95,61C370.51,364.41,393.4,392,417,418.68c19.41,22,39.4,43.61,61.41,63,13.19,11.64,27.08,22.47,41,33.28,4.93,3.84,10,7.77,16.06,9.4l-1.06,170.52-58.46-68.54q-9.25-10.84-18.55-21.63-29.56-34.13-60.74-66.81c-49.88-52.3-169.42-139.27-169.42-139.27C195.62,382.06,176,364.28,140.83,368S56.33,386.95,21.3,392c-2.64.38-12.54-1-12.29-9,.67-21.72,13.53-26.69,24.74-32.51,36.62-19,83-14.66,123.44-22.77,6.68-1.34,13.48-2.84,19.33-6.32,7.62-4.54,13-12.11,16.75-20.16,8.68-18.78,9.09-40.21,8.66-60.89a961.59,961.59,0,0,0-12-132.89c-3.9-24.25-8.74-48.54-8.3-73.1.11-6,.63-12.32,3.92-17.35s9.37-8.17,14.7-5.4"/><path class="cls-1" d="M237.68,44.85c-2.93-.7-5.1,1.66-6.07,4.51s-.4,6,.45,8.89c.78,2.64,1.85,5.32,3.93,7.12s5.42,2.39,7.57.69"/><path d="M216.33,41c7.35,1.1,11.76,4,14.34,11.11,2.32,6.43,4.26,13,6.54,19.45,3.64,10.32,7.78,20.45,12,30.57a452.42,452.42,0,0,1,16.3,44.95c4.59,15.58,8.8,31.32,15.11,46.32.74,1.75,3.64,1,2.89-.8-6.77-16.09-11.12-33-16.11-49.71-4.78-16-11-31.21-17.37-46.6-4.46-10.86-8.66-21.8-12.42-32.92-2.09-6.19-3.32-13.69-7.42-18.92-3.22-4.11-8-5.59-13-6.34-1.89-.28-2.7,2.61-.8,2.89Z"/><path d="M241.14,235.89,197.91,36.6c-1.32-6.07-7.12-22.87-1.5-28,2.77-2.54,6.1-2,9.43-1.48a21.4,21.4,0,0,1,2.81.43c.25.07,1,0,1.17.18.83.67-.41.07-.11.91,1.16,3.27,1.08,7.59,1.59,11q.87,5.88,1.81,11.75C217.77,60.8,223.66,90,231.22,118.8a842.5,842.5,0,0,0,32.09,96.84c.7,1.77,3.61,1,2.89-.8C239.45,147.48,222.31,77.69,212.33,6a1.44,1.44,0,0,0-1-1c-3.54-.54-7.86-1.9-11.42-1.25A10.89,10.89,0,0,0,191,15.26c.71,12,4.41,24.11,7,35.81l25.64,118.21,14.62,67.41c.41,1.89,3.3,1.09,2.89-.8Z"/><path d="M195,27.07c-7.5-5.19-12.33,7.07-11.42,12.58.7,4.27,2.1,10.17,5.74,13,3,2.3,6.83,2.74,9.81.34,1.5-1.21-.63-3.32-2.12-2.12-5.85,4.72-9.44-6.79-10.21-10.35-.61-2.81.89-14.83,6.7-10.82,1.59,1.1,3.09-1.5,1.51-2.59Z"/><path d="M211.18,10.5C195.23,6.71,199,41.6,214,34.9c1.76-.79.24-3.37-1.51-2.59-9.39,4.19-12.78-21.46-2.09-18.92,1.88.45,2.68-2.45.8-2.89Z"/><path d="M12,395.47c-5.36-7.47,8.08-12.22,13.2-13.06a68.23,68.23,0,0,1,9.57-.82,21.6,21.6,0,0,1,5.75.44c1.8.46,8,3.81,3.34,6.31-1.7.91-.19,3.5,1.51,2.59,3.58-1.92,3.8-6,1.16-9-3.9-4.39-11.49-3.52-16.66-3.09-6.13.52-12.75,1.48-17.62,5.59-3.79,3.2-6,8.12-2.85,12.51,1.12,1.55,3.72.06,2.59-1.51Z"/><path d="M259.67,125.52c8.4-.55,13,7.33,16.27,13.9a188.53,188.53,0,0,1,7.84,18.8c4,11,7.49,22.12,10.67,33.35,2.53,8.91,3.91,18,5.59,27.11,1.52,8.22,2.48,16.54,4.25,24.72.9,4.15,2.18,8.22,3.05,12.37,1,4.6,1.33,9.31,2.31,13.91,1.82,8.59,6.42,16.52,10.15,24.4,4.07,8.59,8.23,17.13,12.62,25.56A397.3,397.3,0,0,0,362.23,368c21.5,29.87,46.12,57.76,71.38,84.49a543,543,0,0,0,45.49,43.27c8.18,6.87,16.56,13.5,25,20.08,7.28,5.69,14.42,12.24,23.41,15l-1.1-1.45L525.45,679l-.13,20.91,2.56-1.06c-32.29-37.86-64.14-76.16-97.33-113.24-24.7-27.59-49.85-54.45-77.77-78.8-41-35.77-84.28-69.07-128.1-101.31-7.53-5.54-16-9.58-24.06-14.26C184.7,382,168.43,373,149.76,371.3c-19-1.76-38.85,3.26-57.27,7.3C72.29,383,52.25,388.19,32,392.29c-4.35.88-8.7,1.7-13.07,2.43-3.53.59-6.76,1.32-10.24.16-9.95-3.31-5-18.28-.53-24.61,4.08-5.85,10.46-9.14,16.65-12.31A134.74,134.74,0,0,1,54.1,346.9c21.07-5.21,42.86-6.27,64.38-8.35,10-1,20.09-2.14,30-4,9.56-1.83,19.13-4.1,26.61-10.7,15.41-13.58,19.58-36.67,20.63-56.14,1.31-24.31-.41-49-2.2-73.29s-4.5-48.51-8.13-72.59c-3.73-24.79-9.1-49.51-9.73-74.65-.14-5.65-.38-11.64.85-17.19,1.5-6.83,7.31-15.49,15.49-12,1.76.75,3.29-1.84,1.51-2.59-7.73-3.29-15.06,1.58-18.29,8.8-4.23,9.44-2.82,21.69-2.16,31.68,1.65,25.05,7,49.71,10.57,74.53q5.49,38.69,7.8,77.74c1.46,24.62,3.76,50.58-.35,75.05-1.88,11.19-5.39,22.6-12.12,31.88-7.73,10.67-18.88,14.21-31.3,16.58-21.84,4.17-44.14,4.84-66.18,7.49C61.16,341.56,41.6,346,23.27,355.37c-5.72,2.93-11.58,6-15.83,10.93A32.81,32.81,0,0,0,0,388c.47,15.74,22.53,9.18,31.27,7.45,21.05-4.18,41.84-9.58,62.8-14.16,20.17-4.4,42.11-10,62.75-6,19.93,3.86,37,15.74,54.41,25.49,14.44,8.08,27.3,18.65,40.49,28.65,25.47,19.3,50.66,39,75.26,59.39,26.15,21.68,51,44.31,74.21,69.13,34.71,37.14,67.42,76,100.41,114.7L525.76,701a1.51,1.51,0,0,0,2.56-1.06l.93-149.61.13-20.91a1.53,1.53,0,0,0-1.1-1.45c-9.57-2.95-17.33-10.5-25.05-16.56-7.41-5.82-14.79-11.7-22-17.75a529,529,0,0,1-41.62-39.2c-26.34-27.46-51.95-56.35-74.25-87.21a395.55,395.55,0,0,1-29.45-47.42c-4.58-8.69-8.89-17.51-13.1-26.38s-9.08-17.46-10.73-27.11c-1.58-9.21-3.83-18.15-5.62-27.31-1.57-8.05-2.58-16.2-4.1-24.26-1.64-8.67-3-17.14-5.47-25.61-3.79-13.19-7.93-26.33-13-39.08-4.17-10.45-10.17-28.44-24.19-27.53-1.92.12-1.93,3.13,0,3Z"/><path d="M230.18,48.35c-14.58-1.7-7.45,32.47,6.64,24a1.5,1.5,0,0,0-1.51-2.59c-9.44,5.68-14.62-19.52-5.12-18.41,1.91.22,1.9-2.78,0-3Z"/></g></g></svg>