<svg xmlns="http://www.w3.org/2000/svg" viewBox="0 0 535.44 697.84"><defs><style>.cls-1{fill:#faedd4;}</style></defs><title>Asset 2</title><g id="Layer_2" data-name="Layer 2"><g id="Hands"><path class="cls-1" d="M311.16,36c-8.45,1.13-12.75,4.05-15.38,12.16-9.62,29.57-12,34.05-24.9,65.57-9.62,23.47-15,52.38-25,75.72"/><path class="cls-1" d="M288.19,232.71,333.54,23.65l.79-4.22.83-6.58a9.45,9.45,0,0,0-2.62-8.91,9.45,9.45,0,0,0-9-2.15l-6.5,1c-10.46,75.6-25.63,138-53.87,208.87"/><path class="cls-1" d="M333.67,24.78c1.63-1.69,6.4-.23,7.25,2s2.36,4.94,2.17,7.28a37.57,37.57,0,0,1-3.2,11.13c-1.48,3.56-7.4,6-10,3.15"/><path class="cls-1" d="M317.1,8.36c2.83-1,6.09.93,7.4,3.64s1.12,5.91.62,8.88c-.45,2.71-1.19,5.5-3,7.54s-5.09,3-7.43,1.6"/><path class="cls-1" d="M517.18,392.64c3.54-4-.09-9.57-4.9-12.26s-10.06-3.3-16.05-3.71c-4.08-.28-8.55-.49-12,1.37s-4.56,6.64-.92,8"/><path class="cls-1" d="M268.21,120.44c-6.74-.92-12.32,5.13-15,9.88-11.63,20.28-23.24,64.74-23.24,64.74-1.11,8-3.87,20.21-5,28.22a188.09,188.09,0,0,1-5,24.9c-2.59,9.12-1.92,17.48-5.93,26.07-9.63,20.67-19.29,41.37-30.95,61-18.22,30.61-41.11,58.16-64.67,84.88C99,442.11,79,463.7,57,483.12c-13.19,11.64-27.08,22.47-41,33.28-4.93,3.84-10,7.77-16.06,9.4L1.06,696.33l58.46-68.54Q68.77,617,78.07,606.16,107.63,572,138.8,539.35c49.88-52.3,169.42-139.27,169.42-139.27,31.54-16.6,51.12-34.39,86.33-30.71s84.5,19,119.53,24.07c2.64.38,12.54-1,12.29-9-.67-21.72-13.53-26.69-24.74-32.51-36.62-19-83-14.66-123.44-22.77-6.68-1.34-13.48-2.84-19.33-6.32-7.62-4.54-13-12.11-16.75-20.16-8.68-18.78-9.09-40.21-8.66-60.89a961.59,961.59,0,0,1,12-132.89c3.9-24.25,8.74-48.54,8.3-73.1-.11-6-.63-12.32-3.92-17.35s-9.37-8.17-14.7-5.4"/><path class="cls-1" d="M299.37,46.26c2.93-.7,5.1,1.66,6.07,4.51s.4,6-.45,8.89c-.78,2.64-1.85,5.32-3.93,7.12s-5.42,2.39-7.57.69"/><path d="M318.26,34.53c-5,.75-9.78,2.24-13,6.34-4.09,5.22-5.33,12.74-7.42,18.92-3.76,11.12-8,22.06-12.42,32.92-6.33,15.4-12.59,30.63-17.37,46.6C263,156,258.7,172.94,251.93,189c-.75,1.78,2.15,2.55,2.89.8,6.31-15,10.51-30.74,15.11-46.32a453,453,0,0,1,16.3-44.95c4.18-10.12,8.31-20.25,12-30.57,2.28-6.45,4.21-13,6.54-19.45,2.6-7.17,6.94-10,14.34-11.11,1.9-.29,1.09-3.18-.8-2.89Z"/><path d="M297.13,233.11,323,113.92l12.72-58.61c2.92-13.48,6.42-26.91,8.22-40.59.72-5.51.06-11-5.59-13.72-4.4-2.1-9.66-.36-14.24.34a1.44,1.44,0,0,0-1,1c-10,71.72-27.12,141.51-53.87,208.87-.71,1.79,2.19,2.57,2.89.8A856.11,856.11,0,0,0,320.38,39.4Q322.28,28.21,324,17c.53-3.56,1.57-7.42,1.6-11,0-1.71-.7-1.24.38-1.89.71-.43,2.34-.36,3.17-.49,3-.46,5.64-1.07,8.41.56,3.64,2.15,3.93,5.49,3.55,9.38-.3,3.08-.78,6.14-1.38,9.18-6.41,32.52-14.05,64.85-21.08,97.25L294.24,232.31c-.41,1.88,2.48,2.69,2.89.8Z"/><path d="M341.93,26.07c5.81-4,7.31,8,6.7,10.82-.77,3.56-4.36,15.07-10.21,10.35-1.49-1.2-3.63.91-2.12,2.12,2.84,2.29,6.34,2,9.33,0,4-2.69,5.49-8.83,6.22-13.29.9-5.5-3.9-17.78-11.42-12.58-1.58,1.09-.08,3.69,1.51,2.59Z"/><path d="M325,9.81c10.67-2.53,7.3,23.12-2.09,18.92-1.75-.78-3.28,1.8-1.51,2.59,15,6.7,18.76-28.19,2.81-24.4-1.88.45-1.08,3.34.8,2.89Z"/><path d="M526,393.4c3.16-4.4.94-9.29-2.85-12.51-4.85-4.12-11.5-5.07-17.62-5.59-5.23-.44-12.71-1.29-16.66,3.09-2.65,2.93-2.4,7.05,1.16,9,1.7.91,3.22-1.68,1.51-2.59-4.93-2.64,2-6,3.34-6.31a19.86,19.86,0,0,1,5-.45,67,67,0,0,1,10.35.83c5.09.83,18.6,5.54,13.2,13.06-1.13,1.57,1.47,3.07,2.59,1.51Z"/><path d="M275.71,118.94c-12.6-.82-18.37,13.66-22.42,23.21a355.11,355.11,0,0,0-12.67,36.2c-7,23.35-9.38,47.58-15.08,71.25-2.28,9.46-2.72,18.36-6.91,27.34-4,8.61-8.06,17.22-12.26,25.74a422.92,422.92,0,0,1-28.43,49.65c-21.3,31.54-46.71,60.41-72.53,88.29A572.75,572.75,0,0,1,59.9,485.16c-8.08,7-16.4,13.69-24.78,20.31-8.57,6.76-17.39,15.62-28,18.89A1.54,1.54,0,0,0,6,525.81l.93,149.61.13,20.91a1.52,1.52,0,0,0,2.56,1.06c33.12-38.83,65.77-78.14,99.89-116.1,25.21-28,51-55,79.52-79.69,25.45-22,51.8-42.89,78.43-63.38,15.72-12.1,31.4-24.43,47.65-35.84a112.08,112.08,0,0,1,9.77-5.58c8.95-5,17.69-10.43,26.8-15.15,9-4.64,18.36-8.46,28.33-10.19,10.74-1.86,21.47-.9,32.16.72,21,3.18,41.62,8.37,62.26,13.17,10.11,2.35,20.23,4.68,30.41,6.69,6.5,1.28,14.34,4,21,2.58,15.48-3.27,9.33-23.84,1.76-32.3-4.35-4.86-10.21-7.84-15.93-10.77a135.4,135.4,0,0,0-28-10.73c-20.71-5.34-42.2-6.57-63.41-8.54a332.58,332.58,0,0,1-34.17-4.57c-11.87-2.36-22.34-6.11-29.69-16.27-14.29-19.72-14.42-46.36-14-69.65q.77-38.28,4.61-76.43c2.6-25.87,6.65-51.48,10.78-77.14,2-12.25,3.75-24.55,4.52-36.95.62-10.1,2.09-22.87-2.93-32.18-3.52-6.52-10.5-10.35-17.58-7.34-1.77.75-.24,3.34,1.51,2.59C351.14,11,357,18.95,358.65,25.57c1.5,6.08,1.19,12.74,1,18.95a307.13,307.13,0,0,1-4,38.12c-3.78,24.31-7.91,48.5-10.62,73Q341,192.69,339.75,230c-.72,22.09-1.81,45.37,5.74,66.53,3.13,8.78,7.71,17.45,14.78,23.68,7.69,6.77,17.6,9,27.42,10.85,20.74,3.89,41.9,4.71,62.83,7.06C471.7,340.52,492,344.85,511,354.6c6.21,3.18,12.55,6.57,16.51,12.54,4.22,6.35,8.93,20.95-.85,24.16-3.27,1.08-6.2.5-9.54-.05-4.61-.76-9.2-1.62-13.77-2.55-10.24-2.07-20.42-4.43-30.59-6.81-20.07-4.69-40.16-9.68-60.57-12.72-18.4-2.74-35.58-2-52.83,5.47-8.79,3.78-17.08,8.61-25.35,13.41-6.37,3.7-13.17,7-19.36,10.92-13.91,8.9-26.87,19.92-40,29.93-24.88,19-49.5,38.34-73.51,58.43a797.89,797.89,0,0,0-73.1,69.15C94.84,592.32,63.38,629.76,31.64,667L7.5,695.27l2.56,1.06L9.13,546.72,9,525.81l-1.1,1.45c7.56-2.33,13.55-7.32,19.69-12.11,7.68-6,15.35-12,22.88-18.17A522.59,522.59,0,0,0,92,459a887.81,887.81,0,0,0,72.91-83.52c23.17-30.37,40.6-63.39,56.7-97.91,3.73-8,4.55-16,6.23-24.51,1.76-9,4.3-17.68,5.65-26.75,1.65-11.08,3.11-22.65,6.06-33.46,3-11.18,6.43-22.28,10.25-33.22,2.5-7.17,5.17-14.3,8.37-21.19,3.39-7.27,8.06-17.13,17.53-16.52,1.93.13,1.92-2.88,0-3Z"/><path d="M306.87,47.76c9.51-1.11,4.34,24.1-5.12,18.41a1.5,1.5,0,0,0-1.51,2.59c14.09,8.47,21.21-25.7,6.64-24-1.9.22-1.92,3.22,0,3Z"/></g></g></svg>