<svg xmlns="http://www.w3.org/2000/svg" viewBox="0 0 782 83.47"><defs><style>.cls-1{fill:#faedd4;}</style></defs><title>Asset 23</title><g id="Layer_2" data-name="Layer 2"><g id="Input_fields" data-name="Input fields"><g id="Layer_2-2" data-name="Layer 2"><g id="Logo"><path class="cls-1" d="M86.27,74.85c-.95,5.39-5.67,8.52-10.88,8.61-19.11.3-21.94-18.9-30.08-32.73-1.79-2.84-7.39-3.21-10.6-3.21h-3L27.82,62.18v.17c0,3.31,3.88,5.58,3.88,6.91a1.22,1.22,0,0,1-1.21,1.22H2.3A1.3,1.3,0,0,1,.88,69.3v-.06c0-1.42,3.4-3.4,5-7.47l14-53.33c-4,0-7.39,2.74-9.08,6.24a17.77,17.77,0,0,0-1.23,3.6,5,5,0,0,1-4.64,3.88A4.88,4.88,0,0,1,0,17.29s0,0,0-.05c0-6.06,10.78-13,21.85-13.15C26.3,4,30.56,4,34.63,4c12.56,0,23.18.47,29.89,2.65C75.4,10,80.76,17.81,80.76,25.76c0,8.7-6.53,17.5-19.48,20.34-2.56.47-4.92.95-7.85,1.23,8.32,6.06,15,22.7,22.9,25.85a4.56,4.56,0,0,0,3.69,0c1-.47,1.48-1.79,2.56-2.27a2.44,2.44,0,0,1,2.74.28C86.47,72,86.47,73.53,86.27,74.85ZM35.67,44.2a24.06,24.06,0,0,0,13-3.69C53.73,37.24,57,29.92,57,23.2a15.58,15.58,0,0,0-3.6-10.5,10.92,10.92,0,0,0-8.32-4.06h-3L32.64,44.2Z"/><path class="cls-1" d="M114.56,24.24c18.54,0,28.19,10.5,28.19,21.66,0,14.85-15.23,25.85-33.58,25.85-18.54,0-28.29-9.65-28.29-20.91C80.88,36.07,96,24.24,114.56,24.24ZM115.7,30c-7.39,0-12.87,20.44-12.87,29.42,0,4.82,2.08,6.53,5.11,6.53,7.39,0,12.87-20.34,12.87-29.61C120.8,31.62,118.82,30,115.7,30Z"/><path class="cls-1" d="M198.57,34.56a4.37,4.37,0,0,1-4.2,4.54H194C185.7,39.1,190.15,29,180.69,29,173,29,168.4,48.46,168.4,57.26c0,5.67,3.12,8,7.94,8,14,0,9.74-10.13,17.12-10.13,3.69,0,5.68,3.78,3.6,7-3.6,5.17-13.81,9.74-21.47,9.74-16.46.19-28-9.08-28-21.85,0-12.11,13.43-26,31.22-26C187.41,24.05,198.57,27.93,198.57,34.56Z"/><path class="cls-1" d="M248.8,38.25s9.27,17.88,13,23.27c2.46,3.6,5.17,6.34,5.17,7.76a1.3,1.3,0,0,1-1.39,1.2H240.28A1.22,1.22,0,0,1,239,69.24c0-1.23,2.36-5,.95-7.76l-6.91-13a2.79,2.79,0,0,0-4.17-1.14l-4,15.7c-.74,3.88,1.42,4.82,1.42,6.24a1.22,1.22,0,0,1-1.23,1.21h-23a1.3,1.3,0,0,1-1.41-1.17v-.06c0-1.42,2.08-2.56,3.12-6.24.28-1,9.56-37.46,13.05-50.9-3,0-4.54.74-5.39,3.6a5.35,5.35,0,0,1-4.92,4,4.85,4.85,0,0,1-4.73-4.92c0-5.77,8.12-7.57,16.25-7.57H237a1.61,1.61,0,0,1,1.61,2.11L230.73,40a5.58,5.58,0,0,0,1.32.19c1.48,0,3.88-.19,7.39-3,4.92-4.54,10.21-13.81,22.16-13.81,7.1,0,10,3.6,10,6.71A5.64,5.64,0,0,1,266.21,36h-.35c-4.25,0-4.92-4.25-8.86-4.25C253.25,31.72,248.9,37,248.8,38.25Z"/><path class="cls-1" d="M329.31,47.58H293.08a33.46,33.46,0,0,0-1.42,8.86c0,5.86,5,9.65,11.63,9.65,14.66,0,13.24-9.56,20.05-9.56a4.2,4.2,0,0,1,4.54,4.25c0,6-12.2,11.08-26.68,11.08-19.87,0-30.36-9.37-30.36-22.16,0-12.3,13.72-25.73,31.6-25.73,16,0,28.38,8.12,28.38,22v.18a1.48,1.48,0,0,1-1.48,1.48ZM304.93,30.64c-5,0-8.32,4.82-9.93,10.78h15.8c1.2-6.49,0-10.75-5.89-10.75Z"/><path class="cls-1" d="M377,58.58c0,4.07-7.85,12.67-23.37,12.67-11.16,0-18.26-7.28-15.89-16.74,2.18-8.23,4.24-16.46,6.46-24.66h-6.06a3.37,3.37,0,0,1-3.4-3.31A3.31,3.31,0,0,1,338,23.2h.1c26.11-1.23,23.46-16,29.14-16,1.89,0,3.22,1,3.22,3,0,.74-3.69,13.06-3.69,13.06h6a3.42,3.42,0,0,1,3.59,3.24v.07a3.48,3.48,0,0,1-3.6,3.32h-7.56L357.69,58.4c-1,4,.74,5.58,3.69,5.58,8.32,0,5.49-9.37,11.63-9.37a3.77,3.77,0,0,1,4,4Z"/><path class="cls-1" d="M490.28,74.85c-.95,5.39-5.67,8.52-10.88,8.61-19.11.3-21.94-18.9-30.08-32.73-1.79-2.84-7.39-3.21-10.6-3.21h-3l-4,14.66v.17c0,3.31,3.88,5.58,3.88,6.91a1.22,1.22,0,0,1-1.22,1.22H406.3a1.3,1.3,0,0,1-1.41-1.17v-.06c0-1.42,3.4-3.4,5-7.47l14-53.33c-4,0-7.39,2.74-9.08,6.24a17.77,17.77,0,0,0-1.23,3.6,5,5,0,0,1-4.64,3.88A4.88,4.88,0,0,1,404,17.29s0,0,0-.05c0-6.06,10.78-13,21.85-13.15,4.43-.1,8.7-.1,12.77-.1,12.56,0,23.18.47,29.89,2.65C479.4,10,484.77,17.81,484.77,25.76c0,8.7-6.53,17.5-19.48,20.34-2.56.47-4.92.95-7.85,1.23,8.32,6.06,15,22.7,22.9,25.85a4.56,4.56,0,0,0,3.69,0c1-.47,1.48-1.79,2.56-2.27a2.44,2.44,0,0,1,2.74.28C490.47,72,490.47,73.53,490.28,74.85ZM439.67,44.2a24.06,24.06,0,0,0,13-3.69c5.11-3.31,8.42-10.6,8.42-17.31a15.58,15.58,0,0,0-3.6-10.5,10.92,10.92,0,0,0-8.32-4.07h-3L436.65,44.2Z"/><path class="cls-1" d="M518.57,24.24c18.54,0,28.19,10.5,28.19,21.66,0,14.85-15.23,25.85-33.58,25.85-18.54,0-28.29-9.65-28.29-20.91C484.89,36.07,500,24.24,518.57,24.24ZM519.71,30c-7.39,0-12.87,20.44-12.87,29.42,0,4.82,2.08,6.53,5.11,6.53,7.39,0,12.87-20.34,12.87-29.61,0-4.73-2-6.34-5.11-6.34Z"/><path class="cls-1" d="M602.58,34.56a4.37,4.37,0,0,1-4.2,4.54H598c-8.32,0-3.88-10.12-13.34-10.12C577,29,572.4,48.46,572.4,57.26c0,5.67,3.12,8,7.94,8,14,0,9.74-10.13,17.12-10.13,3.69,0,5.68,3.78,3.6,7-3.6,5.17-13.81,9.74-21.47,9.74-16.46.19-28-9.08-28-21.85,0-12.11,13.43-26,31.22-26C591.42,24.05,602.58,27.93,602.58,34.56Z"/><path class="cls-1" d="M652.81,38.25s9.27,17.88,13,23.27c2.46,3.6,5.17,6.34,5.17,7.76a1.3,1.3,0,0,1-1.39,1.2H644.29A1.22,1.22,0,0,1,643,69.24c0-1.23,2.36-5,.95-7.76l-6.91-13a2.79,2.79,0,0,0-4.17-1.14l-4,15.7c-.74,3.88,1.42,4.82,1.42,6.24a1.22,1.22,0,0,1-1.23,1.21h-23a1.3,1.3,0,0,1-1.41-1.17v-.06c0-1.42,2.08-2.56,3.12-6.24.28-1,9.56-37.46,13.05-50.9-3,0-4.54.74-5.39,3.6a5.35,5.35,0,0,1-4.92,4,4.85,4.85,0,0,1-4.73-4.92c0-5.77,8.12-7.57,16.25-7.57H641a1.61,1.61,0,0,1,1.61,2.11L634.74,40a5.58,5.58,0,0,0,1.32.19c1.48,0,3.88-.19,7.39-3,4.92-4.54,10.21-13.81,22.16-13.81,7.1,0,10,3.6,10,6.71A5.64,5.64,0,0,1,670.22,36h-.35c-4.25,0-4.92-4.25-8.86-4.25C657.25,31.72,652.91,37,652.81,38.25Z"/><path class="cls-1" d="M733.31,47.58H697.09a33.46,33.46,0,0,0-1.42,8.86c0,5.86,5,9.65,11.63,9.65,14.66,0,13.24-9.56,20.05-9.56a4.2,4.2,0,0,1,4.54,4.25c0,6-12.2,11.08-26.68,11.08-19.87,0-30.36-9.37-30.36-22.16,0-12.3,13.72-25.73,31.6-25.73,16,0,28.38,8.12,28.38,22v.18a1.48,1.48,0,0,1-1.48,1.48ZM708.94,30.64c-5,0-8.32,4.82-9.93,10.78h15.8c1.2-6.49,0-10.75-5.89-10.75Z"/><path class="cls-1" d="M781,58.58c0,4.07-7.85,12.67-23.37,12.67-11.16,0-18.26-7.28-15.89-16.74,2.18-8.23,4.24-16.46,6.46-24.66h-6.06a3.37,3.37,0,0,1-3.4-3.31A3.31,3.31,0,0,1,742,23.23h.1c26.11-1.23,23.46-16,29.14-16,1.89,0,3.22,1,3.22,3,0,.74-3.69,13.06-3.69,13.06h6a3.42,3.42,0,0,1,3.59,3.24v.07a3.48,3.48,0,0,1-3.6,3.31h-7.57l-7.47,28.57c-1,4,.74,5.58,3.69,5.58,8.32,0,5.49-9.37,11.63-9.37a3.77,3.77,0,0,1,4,3.57Q781,58.4,781,58.58Z"/></g></g><g id="Layer_2-3" data-name="Layer 2"><g id="Logo-2" data-name="Logo"><path d="M89.27,70.85c-.95,5.39-5.67,8.52-10.88,8.61-19.11.3-21.94-18.9-30.08-32.73-1.79-2.84-7.39-3.21-10.6-3.21h-3L30.82,58.18v.17c0,3.31,3.88,5.58,3.88,6.91a1.22,1.22,0,0,1-1.21,1.22H5.3A1.3,1.3,0,0,1,3.88,65.3v-.06c0-1.42,3.4-3.4,5-7.47l14-53.33c-4,0-7.39,2.74-9.08,6.24a17.77,17.77,0,0,0-1.23,3.6,5,5,0,0,1-4.64,3.88A4.88,4.88,0,0,1,3,13.29s0,0,0-.05C3,7.19,13.78.28,24.85.1,29.3,0,33.56,0,37.63,0,50.18,0,60.8.47,67.52,2.65,78.4,6,83.76,13.81,83.76,21.76c0,8.7-6.53,17.5-19.48,20.34-2.56.47-4.92.95-7.85,1.23,8.32,6.06,15,22.7,22.9,25.85a4.56,4.56,0,0,0,3.69,0c1-.47,1.48-1.79,2.56-2.27a2.44,2.44,0,0,1,2.74.28C89.47,68,89.47,69.53,89.27,70.85ZM38.67,40.2a24.06,24.06,0,0,0,13-3.69C56.73,33.24,60,25.92,60,19.2a15.58,15.58,0,0,0-3.6-10.5,10.92,10.92,0,0,0-8.32-4.06h-3L35.64,40.2Z"/><path d="M117.56,20.24c18.54,0,28.19,10.5,28.19,21.66,0,14.85-15.23,25.85-33.58,25.85-18.54,0-28.29-9.65-28.29-20.91C83.88,32.07,99,20.24,117.56,20.24ZM118.7,26c-7.39,0-12.87,20.44-12.87,29.42,0,4.82,2.08,6.53,5.11,6.53,7.39,0,12.87-20.34,12.87-29.61C123.8,27.62,121.82,26,118.7,26Z"/><path d="M201.57,30.56a4.37,4.37,0,0,1-4.2,4.54H197C188.7,35.1,193.15,25,183.69,25,176,25,171.4,44.46,171.4,53.26c0,5.67,3.12,8,7.94,8,14,0,9.74-10.13,17.12-10.13,3.69,0,5.68,3.78,3.6,7-3.6,5.17-13.81,9.74-21.47,9.74-16.46.19-28-9.08-28-21.85,0-12.11,13.43-26,31.22-26C190.41,20.05,201.57,23.93,201.57,30.56Z"/><path d="M251.8,34.25s9.27,17.88,13,23.27c2.46,3.6,5.17,6.34,5.17,7.76a1.3,1.3,0,0,1-1.39,1.2H243.28A1.22,1.22,0,0,1,242,65.24c0-1.23,2.36-5,.95-7.76l-6.91-13a2.79,2.79,0,0,0-4.17-1.14l-4,15.7c-.74,3.88,1.42,4.82,1.42,6.24a1.22,1.22,0,0,1-1.23,1.21h-23a1.3,1.3,0,0,1-1.41-1.17v-.06c0-1.42,2.08-2.56,3.12-6.24.28-1,9.56-37.46,13.05-50.9-3,0-4.54.74-5.39,3.6a5.35,5.35,0,0,1-4.92,4,4.85,4.85,0,0,1-4.73-4.92c0-5.77,8.12-7.57,16.25-7.57H240a1.61,1.61,0,0,1,1.61,2.11L233.73,36a5.58,5.58,0,0,0,1.32.19c1.48,0,3.88-.19,7.39-3,4.92-4.54,10.21-13.81,22.16-13.81,7.1,0,10,3.6,10,6.71A5.64,5.64,0,0,1,269.21,32h-.35c-4.25,0-4.92-4.25-8.86-4.25C256.25,27.72,251.9,33,251.8,34.25Z"/><path d="M332.31,43.58H296.08a33.46,33.46,0,0,0-1.42,8.86c0,5.86,5,9.65,11.63,9.65,14.66,0,13.24-9.56,20.05-9.56a4.2,4.2,0,0,1,4.54,4.25c0,6-12.2,11.08-26.68,11.08-19.87,0-30.36-9.37-30.36-22.16,0-12.3,13.72-25.73,31.6-25.73,16,0,28.38,8.12,28.38,22v.18a1.48,1.48,0,0,1-1.48,1.48ZM307.93,26.64c-5,0-8.32,4.82-9.93,10.78h15.8c1.2-6.49,0-10.75-5.89-10.75Z"/><path d="M380,54.58c0,4.07-7.85,12.67-23.37,12.67-11.16,0-18.26-7.28-15.89-16.74,2.18-8.23,4.24-16.46,6.46-24.66h-6.06a3.37,3.37,0,0,1-3.4-3.31A3.31,3.31,0,0,1,341,19.2h.1c26.11-1.23,23.46-16,29.14-16,1.89,0,3.22,1,3.22,3,0,.74-3.69,13.06-3.69,13.06h6a3.42,3.42,0,0,1,3.59,3.24v.07a3.48,3.48,0,0,1-3.6,3.32h-7.56L360.69,54.4c-1,4,.74,5.58,3.69,5.58,8.32,0,5.49-9.37,11.63-9.37a3.77,3.77,0,0,1,4,4Z"/><path d="M491.28,70.85c-.95,5.39-5.67,8.52-10.88,8.61-19.11.3-21.94-18.9-30.08-32.73-1.79-2.84-7.39-3.21-10.6-3.21h-3l-4,14.66v.17c0,3.31,3.88,5.58,3.88,6.91a1.22,1.22,0,0,1-1.22,1.22H407.3a1.3,1.3,0,0,1-1.41-1.17v-.06c0-1.42,3.4-3.4,5-7.47l14-53.33c-4,0-7.39,2.74-9.08,6.24a17.77,17.77,0,0,0-1.23,3.6,5,5,0,0,1-4.64,3.88A4.88,4.88,0,0,1,405,13.29s0,0,0-.05C405,7.19,415.79.28,426.86.1c4.43-.1,8.7-.1,12.77-.1,12.56,0,23.18.47,29.89,2.65C480.4,6,485.77,13.81,485.77,21.76c0,8.7-6.53,17.5-19.48,20.34-2.56.47-4.92.95-7.85,1.23,8.32,6.06,15,22.7,22.9,25.85a4.56,4.56,0,0,0,3.69,0c1-.47,1.48-1.79,2.56-2.27a2.44,2.44,0,0,1,2.74.28C491.47,68,491.47,69.53,491.28,70.85ZM440.67,40.2a24.06,24.06,0,0,0,13-3.69c5.11-3.31,8.42-10.6,8.42-17.31a15.58,15.58,0,0,0-3.6-10.5,10.92,10.92,0,0,0-8.32-4.07h-3L437.65,40.2Z"/><path d="M519.57,20.24c18.54,0,28.19,10.5,28.19,21.66,0,14.85-15.23,25.85-33.58,25.85-18.54,0-28.29-9.65-28.29-20.91C485.89,32.07,501,20.24,519.57,20.24ZM520.71,26c-7.39,0-12.87,20.44-12.87,29.42,0,4.82,2.08,6.53,5.11,6.53,7.39,0,12.87-20.34,12.87-29.61,0-4.73-2-6.34-5.11-6.34Z"/><path d="M603.58,30.56a4.37,4.37,0,0,1-4.2,4.54H599c-8.32,0-3.88-10.12-13.34-10.12C578,25,573.4,44.46,573.4,53.26c0,5.67,3.12,8,7.94,8,14,0,9.74-10.13,17.12-10.13,3.69,0,5.68,3.78,3.6,7-3.6,5.17-13.81,9.74-21.47,9.74-16.46.19-28-9.08-28-21.85,0-12.11,13.43-26,31.22-26C592.42,20.05,603.58,23.93,603.58,30.56Z"/><path d="M653.81,34.25s9.27,17.88,13,23.27c2.46,3.6,5.17,6.34,5.17,7.76a1.3,1.3,0,0,1-1.39,1.2H645.29A1.22,1.22,0,0,1,644,65.24c0-1.23,2.36-5,.95-7.76l-6.91-13a2.79,2.79,0,0,0-4.17-1.14l-4,15.7c-.74,3.88,1.42,4.82,1.42,6.24a1.22,1.22,0,0,1-1.23,1.21h-23a1.3,1.3,0,0,1-1.41-1.17v-.06c0-1.42,2.08-2.56,3.12-6.24.28-1,9.56-37.46,13.05-50.9-3,0-4.54.74-5.39,3.6a5.35,5.35,0,0,1-4.92,4,4.85,4.85,0,0,1-4.73-4.92c0-5.77,8.12-7.57,16.25-7.57H642a1.61,1.61,0,0,1,1.61,2.11L635.74,36a5.58,5.58,0,0,0,1.32.19c1.48,0,3.88-.19,7.39-3,4.92-4.54,10.21-13.81,22.16-13.81,7.1,0,10,3.6,10,6.71A5.64,5.64,0,0,1,671.22,32h-.35c-4.25,0-4.92-4.25-8.86-4.25C658.25,27.72,653.91,33,653.81,34.25Z"/><path d="M734.31,43.58H698.09a33.46,33.46,0,0,0-1.42,8.86c0,5.86,5,9.65,11.63,9.65,14.66,0,13.24-9.56,20.05-9.56a4.2,4.2,0,0,1,4.54,4.25c0,6-12.2,11.08-26.68,11.08-19.87,0-30.36-9.37-30.36-22.16,0-12.3,13.72-25.73,31.6-25.73,16,0,28.38,8.12,28.38,22v.18a1.48,1.48,0,0,1-1.48,1.48ZM709.94,26.64c-5,0-8.32,4.82-9.93,10.78h15.8c1.2-6.49,0-10.75-5.89-10.75Z"/><path d="M782,54.58c0,4.07-7.85,12.67-23.37,12.67-11.16,0-18.26-7.28-15.89-16.74,2.18-8.23,4.24-16.46,6.46-24.66h-6.06a3.37,3.37,0,0,1-3.4-3.31A3.31,3.31,0,0,1,743,19.23h.1c26.11-1.23,23.46-16,29.14-16,1.89,0,3.22,1,3.22,3,0,.74-3.69,13.06-3.69,13.06h6a3.42,3.42,0,0,1,3.59,3.24v.07a3.48,3.48,0,0,1-3.6,3.31h-7.57l-7.47,28.57c-1,4,.74,5.58,3.69,5.58,8.32,0,5.49-9.37,11.63-9.37a3.77,3.77,0,0,1,4,3.57Q782,54.4,782,54.58Z"/></g></g></g></g></svg>