<svg xmlns="http://www.w3.org/2000/svg" viewBox="0 0 221.22 457.07"><defs><style>.cls-1{stroke:#000;}.cls-1,.cls-3{stroke-miterlimit:10;}.cls-2{fill:#faedd4;}.cls-3{stroke:#faedd4;}</style></defs><title>Asset 1</title><g id="Layer_2" data-name="Layer 2"><g id="Hands"><path d="M60.54,318.34c-8.29,10-6.63,26-5.79,39.22l5.64,89c-19.49-34.76-35.3-72.51-40-112.49s7.21-86.57,30.36-118.78Z"/><path d="M59.48,317.28c-11.37,14.61-6.43,37.15-5.35,54.13l4.77,75.19,2.8-.76c-16.38-29.33-30.11-60.44-36.83-93.5a179,179,0,0,1,4.89-91,164.93,164.93,0,0,1,22.33-45.24l-2.8-.76,8.54,90.12L59,318.34c.18,1.91,3.18,1.92,3,0L53.5,228.22l-1.22-12.89a1.51,1.51,0,0,0-2.8-.76C32,239.18,21.92,268.92,18.84,298.83c-3.38,32.87,3.84,65.77,15.52,96.4A398.45,398.45,0,0,0,59.1,447.36a1.51,1.51,0,0,0,2.8-.76L57.5,377.35c-.63-10-1.46-20-1.87-30.08-.38-9.53-.16-20,6-27.87C62.78,317.89,60.67,315.76,59.48,317.28Z"/><path d="M178.84,315c8.29,10,6.63,26,5.79,39.22l-5.64,89c19.49-34.76,35.3-72.51,40-112.49S211.75,244.19,188.6,212Z"/><path d="M177.78,316c6,7.66,6.32,17.81,6,27.12-.36,10.28-1.24,20.56-1.89,30.83l-4.39,69.25a1.51,1.51,0,0,0,2.8.76c16.78-30.06,30.86-62,37.49-96a181.66,181.66,0,0,0-5.49-91.62,167.31,167.31,0,0,0-22.39-45.19,1.51,1.51,0,0,0-2.8.76l-8.54,90.12L177.34,315c-.18,1.92,2.82,1.91,3,0l8.54-90.12L190.1,212l-2.8.76c17.46,24.59,27.59,54.4,30.4,84.34,3,31.8-4,63.52-15.25,93.17a391.53,391.53,0,0,1-24.76,52.25l2.8.76,4.77-75.19c1.08-17,6-39.53-5.35-54.13C178.71,312.4,176.6,314.54,177.78,316Z"/><path d="M174.07,339.14c6.32-24.52,14.69-50.15,14.71-75.55a784.29,784.29,0,0,0-15-153.35c-7.47-37.61-15-59.75-35.54-88.61L119,1.49l-7.32,7.19C83.36,33.24,71.7,72.63,64.24,110.24a784.29,784.29,0,0,0-15,153.35c0,25.4,11,51,17.28,75.55S167.75,363.66,174.07,339.14Z"/><path d="M175.51,339.54c7-27.14,14.93-53.52,14.75-81.81a784.86,784.86,0,0,0-5.5-87.72c-3.24-27.18-7.53-54.46-14.12-81-5.08-20.48-12.72-39.85-24.08-57.69C139.13,19.6,129.55,10.38,120,.43a1.52,1.52,0,0,0-2.12,0C108.21,9.94,98.46,19,91,30.46,80.82,46.17,74.2,64,69.26,81.94,57.62,124.32,52.14,169,49.34,212.81q-1.15,18-1.48,36.13c-.19,10.84-.31,21.58,1.44,32.31,1.86,11.37,5.13,22.45,8.48,33.45,1.45,4.75,2.93,9.5,4.34,14.27,1.2,4.06,1.89,8.51,3.59,12.39,3.08,7,11.37,10.56,18.19,12.77,10.66,3.46,22.14,4.65,33.31,4.87,12.9.25,26.29-.77,38.67-4.62,7.61-2.37,17.23-6.4,19.63-14.84a1.5,1.5,0,0,0-2.89-.8c-2.15,7.56-11.63,11-18.34,13-10.31,3.07-21.21,4.15-31.93,4.29-11.23.15-22.66-.73-33.54-3.59-6.89-1.81-16.52-4.73-20-11.64-1.41-2.77-1.86-6.11-2.7-9.08-1.53-5.36-3.19-10.68-4.82-16A308.17,308.17,0,0,1,53,285c-4.18-21.27-2.27-43.84-1.08-65.35,2.35-42.52,7.65-85.4,17.64-126.84,4.7-19.49,11-38.89,21.19-56.25C98.58,23.3,109.18,13.2,120,2.55H117.9c7.35,7.68,15.8,15,21.82,23.79a186.44,186.44,0,0,1,26.13,56.14c7.1,25.71,11.37,52.39,14.82,78.8A784.28,784.28,0,0,1,187.1,246c.34,15.88.06,31.3-3,47-3,15.46-7.54,30.56-11.49,45.79A1.5,1.5,0,0,0,175.51,339.54Z"/><ellipse class="cls-1" cx="120.24" cy="139.09" rx="36" ry="37.59"/><path class="cls-2" d="M42.54,327.34c-8.29,10-6.63,26-5.79,39.22l5.64,89c-19.49-34.76-35.3-72.51-40-112.49s7.21-86.57,30.36-118.78Z"/><path d="M41.48,326.28c-11.37,14.61-6.43,37.15-5.35,54.13l4.77,75.19,2.8-.76c-16.38-29.33-30.11-60.44-36.83-93.5a179,179,0,0,1,4.89-91,164.93,164.93,0,0,1,22.33-45.24l-2.8-.76,8.54,90.12L41,327.34c.18,1.91,3.18,1.92,3,0L35.5,237.22l-1.22-12.89a1.51,1.51,0,0,0-2.8-.76C14,248.18,3.92,277.92.84,307.83c-3.38,32.87,3.84,65.77,15.52,96.4A398.45,398.45,0,0,0,41.1,456.36a1.51,1.51,0,0,0,2.8-.76L39.5,386.35c-.63-10-1.46-20-1.87-30.08-.38-9.53-.16-20,6-27.87C44.78,326.89,42.67,324.76,41.48,326.28Z"/><path class="cls-2" d="M160.84,324c8.29,10,6.63,26,5.79,39.22l-5.64,89c19.49-34.76,35.3-72.51,40-112.49S193.75,253.19,170.6,221Z"/><path d="M159.78,325c6,7.66,6.32,17.81,6,27.12-.36,10.28-1.24,20.56-1.89,30.83l-4.39,69.25a1.51,1.51,0,0,0,2.8.76c16.78-30.06,30.86-62,37.49-96a181.66,181.66,0,0,0-5.49-91.62,167.31,167.31,0,0,0-22.39-45.19,1.51,1.51,0,0,0-2.8.76l-8.54,90.12L159.34,324c-.18,1.92,2.82,1.91,3,0l8.54-90.12L172.1,221l-2.8.76c17.46,24.59,27.59,54.4,30.4,84.34,3,31.8-4,63.52-15.25,93.17a391.53,391.53,0,0,1-24.76,52.25l2.8.76,4.77-75.19c1.08-17,6-39.53-5.35-54.13C160.71,321.4,158.6,323.54,159.78,325Z"/><path class="cls-2" d="M156.07,348.14c6.32-24.52,14.69-50.15,14.71-75.55a784.29,784.29,0,0,0-15-153.35c-7.47-37.61-15-59.75-35.54-88.61L101,10.49l-7.32,7.19C65.36,42.24,53.7,81.63,46.24,119.24a784.29,784.29,0,0,0-15,153.35c0,25.4,11,51,17.28,75.55S149.75,372.66,156.07,348.14Z"/><path d="M157.51,348.54c7-27.14,14.93-53.52,14.75-81.81a784.86,784.86,0,0,0-5.5-87.72c-3.24-27.18-7.53-54.46-14.12-81-5.08-20.48-12.72-39.85-24.08-57.69-7.43-11.66-17-20.88-26.55-30.83a1.52,1.52,0,0,0-2.12,0C90.21,18.94,80.46,28,73,39.46,62.82,55.17,56.2,73,51.26,90.94,39.62,133.32,34.14,178,31.34,221.81q-1.15,18-1.48,36.13c-.19,10.84-.31,21.58,1.44,32.31,1.86,11.37,5.13,22.45,8.48,33.45,1.45,4.75,2.93,9.5,4.34,14.27,1.2,4.06,1.89,8.51,3.59,12.39,3.08,7,11.37,10.56,18.19,12.77,10.66,3.46,22.14,4.65,33.31,4.87,12.9.25,26.29-.77,38.67-4.62,7.61-2.37,17.23-6.4,19.63-14.84a1.5,1.5,0,0,0-2.89-.8c-2.15,7.56-11.63,11-18.34,13-10.31,3.07-21.21,4.15-31.93,4.29-11.23.15-22.66-.73-33.54-3.59-6.89-1.81-16.52-4.73-20-11.64-1.41-2.77-1.86-6.11-2.7-9.08-1.53-5.36-3.19-10.68-4.82-16A308.17,308.17,0,0,1,35,294c-4.18-21.27-2.27-43.84-1.08-65.35,2.35-42.52,7.65-85.4,17.64-126.84,4.7-19.49,11-38.89,21.19-56.25C80.58,32.3,91.18,22.2,102,11.55H99.9c7.35,7.68,15.8,15,21.82,23.79a186.44,186.44,0,0,1,26.13,56.14c7.1,25.71,11.37,52.39,14.82,78.8A784.28,784.28,0,0,1,169.1,255c.34,15.88.06,31.3-3,47-3,15.46-7.54,30.56-11.49,45.79A1.5,1.5,0,0,0,157.51,348.54Z"/><ellipse class="cls-3" cx="102.24" cy="148.09" rx="36" ry="37.59"/></g></g></svg>