<svg xmlns="http://www.w3.org/2000/svg" viewBox="0 0 162.58 334.48"><defs><style>.cls-1{stroke:#000;}.cls-1,.cls-3{stroke-miterlimit:10;}.cls-2{fill:#faedd4;}.cls-3{stroke:#faedd4;}.cls-4{fill:#1e769c;}</style></defs><title>Asset 5</title><g id="Layer_2" data-name="Layer 2"><g id="Rocket"><path d="M44.68,232.8c-6.05,7.29-4.84,19-4.23,28.63l4.12,65c-14.23-25.38-25.77-52.93-29.18-82.12s5.27-63.2,22.17-86.72Z"/><path d="M43.39,232c-8.26,10.89-4.54,27.67-3.75,40.23l3.43,54.17,2.8-.76c-14.93-26.78-27.73-56.57-29.52-87.57-1.6-27.84,6.38-57,22.5-79.75l-2.8-.76,7.12,75.2c.18,1.91,3.18,1.92,3,0l-7.12-75.2a1.51,1.51,0,0,0-2.8-.76c-16.38,23.18-24.56,53-22.91,81.26,1.84,31.55,14.72,61.81,29.93,89.09a1.51,1.51,0,0,0,2.8-.76l-3.18-50.23c-.47-7.42-1.1-14.85-1.38-22.28-.27-7.13,0-14.46,4.47-20.37C47.14,232,44.54,230.52,43.39,232Z"/><path d="M131,230.35c6.05,7.29,4.84,19,4.23,28.63l-4.12,65c14.23-25.38,25.77-52.93,29.18-82.12s-5.27-63.2-22.17-86.72Z"/><path d="M129.75,231.11c4.47,5.89,4.75,13.25,4.47,20.37-.29,7.43-.91,14.86-1.38,22.28L129.65,324a1.51,1.51,0,0,0,2.8.76c15.2-27.28,28.09-57.53,29.93-89.09,1.65-28.3-6.53-58.09-22.91-81.26a1.51,1.51,0,0,0-2.8.76l-7.12,75.2c-.18,1.92,2.82,1.91,3,0l7.12-75.2-2.8.76c16.1,22.78,24.14,51.93,22.5,79.75-1.83,31-14.58,60.77-29.52,87.57l2.8.76,3.43-54.17c.8-12.56,4.52-29.34-3.75-40.23C131.18,228.08,128.58,229.57,129.75,231.11Z"/><path d="M127.56,248c4.62-17.9,10.72-36.61,10.74-55.15a572.56,572.56,0,0,0-10.95-112c-5.45-27.45-10.93-43.62-25.95-64.69L87.33,1.49,82,6.74C61.34,24.67,52.83,53.43,47.38,80.88a572.56,572.56,0,0,0-10.95,112c0,18.54,8,37.25,12.62,55.15S122.94,265.89,127.56,248Z"/><path d="M129,248.39c5.12-19.69,10.91-38.91,10.78-59.44a573,573,0,0,0-4-64c-4.12-34.78-9-72.24-28.23-102.32-5.38-8.39-12.33-15-19.21-22.22a1.52,1.52,0,0,0-2.12,0c-6.94,6.81-14,13.28-19.35,21.47-7.45,11.31-12.34,24.19-16,37.18-8.77,31.31-12.8,64.47-14.86,96.85-1,16.34-2.66,33.64,0,49.88A186.5,186.5,0,0,0,42.19,230c1.94,6.36,3.16,13.71,5.88,19.77,2.34,5.21,8.23,7.84,13.35,9.53,7.93,2.62,16.52,3.5,24.83,3.65,9.38.17,19.14-.59,28.14-3.39,5.75-1.79,12.76-4.8,14.61-11.12.55-1.86-2.35-2.65-2.89-.8-1.67,5.7-9.09,8.1-14.15,9.5a88.68,88.68,0,0,1-23.66,2.82,88.71,88.71,0,0,1-23.66-2.82c-5.06-1.4-11.88-3.65-14-9-2.49-6.26-3.86-13.34-5.82-19.81A179.81,179.81,0,0,1,39,205c-2.49-15.34-.94-31.7,0-47.14C40.79,127.57,44.64,97,51.85,67.5c3.41-13.94,7.93-27.82,15.26-40.23,5.69-9.63,13.4-17,21.28-24.72H86.27C91.34,7.85,97.35,12.92,101.52,19a136.9,136.9,0,0,1,19.66,41.8c10.54,38.2,14.58,79,15.47,118.48.27,12,.08,23.65-2.26,35.47-2.19,11.1-5.44,21.95-8.28,32.89A1.5,1.5,0,0,0,129,248.39Z"/><ellipse class="cls-1" cx="88.27" cy="101.95" rx="26.28" ry="27.44"/><path class="cls-2" d="M31.54,239.37c-6.05,7.29-4.84,19-4.23,28.63l4.12,65C17.21,307.63,5.66,280.08,2.25,250.89s5.27-63.2,22.17-86.72Z"/><path d="M30.25,238.61C22,249.5,25.7,266.29,26.5,278.84L29.93,333l2.8-.76C17.8,305.47,5,275.68,3.21,244.68c-1.6-27.84,6.38-57,22.5-79.75l-2.8-.76L30,239.37c.18,1.91,3.18,1.92,3,0l-7.12-75.2a1.51,1.51,0,0,0-2.8-.76C6.74,186.59-1.44,216.38.21,244.68,2,276.23,14.93,306.49,30.14,333.77a1.51,1.51,0,0,0,2.8-.76l-3.18-50.23c-.47-7.42-1.1-14.85-1.38-22.28-.27-7.13,0-14.46,4.47-20.37C34,238.59,31.4,237.09,30.25,238.61Z"/><path class="cls-2" d="M117.9,236.92c6.05,7.29,4.84,19,4.23,28.63l-4.12,65c14.23-25.38,25.77-52.93,29.18-82.12s-5.27-63.2-22.17-86.72Z"/><path d="M116.6,237.68c4.47,5.89,4.75,13.25,4.47,20.37-.29,7.43-.91,14.86-1.38,22.28l-3.18,50.23a1.51,1.51,0,0,0,2.8.76c15.2-27.28,28.09-57.53,29.93-89.09,1.65-28.3-6.53-58.09-22.91-81.26a1.51,1.51,0,0,0-2.8.76l-7.12,75.2c-.18,1.92,2.82,1.91,3,0l7.12-75.2-2.8.76c16.1,22.78,24.14,51.93,22.5,79.75-1.83,31-14.58,60.77-29.52,87.57l2.8.76,3.43-54.17c.8-12.56,4.52-29.34-3.75-40.23C118,234.65,115.44,236.14,116.6,237.68Z"/><path class="cls-2" d="M114.42,254.56c4.62-17.9,10.72-36.61,10.74-55.15a572.56,572.56,0,0,0-10.95-112C108.76,60,103.28,43.83,88.27,22.76L74.19,8.06l-5.34,5.25C48.2,31.24,39.69,60,34.24,87.45a572.56,572.56,0,0,0-10.95,112c0,18.54,8,37.25,12.62,55.15S109.8,272.46,114.42,254.56Z"/><path d="M115.86,255c5.12-19.69,10.91-38.91,10.78-59.44a573,573,0,0,0-4-64c-4.12-34.78-9-72.24-28.23-102.32C89.07,20.83,82.12,14.18,75.25,7a1.52,1.52,0,0,0-2.12,0c-6.94,6.81-14,13.28-19.35,21.47-7.45,11.31-12.34,24.19-16,37.18C29,97,25,130.12,22.95,162.5c-1,16.34-2.66,33.64,0,49.88a186.5,186.5,0,0,0,6.11,24.15c1.94,6.36,3.16,13.71,5.88,19.77,2.34,5.21,8.23,7.84,13.35,9.53,7.93,2.62,16.52,3.5,24.83,3.65,9.38.17,19.14-.59,28.14-3.39,5.75-1.79,12.76-4.8,14.61-11.12.55-1.86-2.35-2.65-2.89-.8-1.67,5.7-9.09,8.1-14.15,9.5a88.68,88.68,0,0,1-23.66,2.82,88.71,88.71,0,0,1-23.66-2.82c-5.06-1.4-11.88-3.65-14-9-2.49-6.26-3.86-13.34-5.82-19.81a179.81,179.81,0,0,1-5.84-23.26c-2.49-15.34-.94-31.7,0-47.14,1.83-30.3,5.67-60.85,12.88-90.37C42.11,60.13,46.63,46.25,54,33.84c5.69-9.63,13.4-17,21.28-24.72H73.13c5.07,5.29,11.08,10.37,15.25,16.4A136.9,136.9,0,0,1,108,67.32c10.54,38.2,14.58,79,15.47,118.48.27,12,.08,23.65-2.26,35.47-2.19,11.1-5.44,21.95-8.28,32.89A1.5,1.5,0,0,0,115.86,255Z"/><ellipse class="cls-3" cx="75.13" cy="108.52" rx="26.28" ry="27.44"/></g><g id="Eye"><path class="cls-2" d="M58.08,111.08a21.73,21.73,0,0,0,22.34,6.31c4-1.25,7.73-3.9,9.26-7.78a4,4,0,0,0,.34-2.09,4.36,4.36,0,0,0-1.11-2,18.06,18.06,0,0,0-17.3-5.8C65.37,101.08,58.08,111.08,58.08,111.08Z"/><circle class="cls-4" cx="75.27" cy="108.87" r="8.05"/><circle cx="75.33" cy="108.81" r="3.35"/></g></g></svg>